<?xml version="1.0" encoding="UTF-8" standalone="no"?>
<svg
   viewBox="-180 60 180.35805 25.87023"
   version="1.1"
   id="svg9"
   width="180.35805"
   height="25.87023"
   xmlns="http://www.w3.org/2000/svg"
   xmlns:svg="http://www.w3.org/2000/svg"
   xmlns:rdf="http://www.w3.org/1999/02/22-rdf-syntax-ns#"
   xmlns:cc="http://creativecommons.org/ns#"
   xmlns:dc="http://purl.org/dc/elements/1.1/">
  <defs
     id="defs13" />
  <title
     id="title2">v.out.svg vector_63556d90562667 /home/kaveh/Southern Ocean (West).svg</title>
  <g
     id="G_Areas"
     fill="#cccccc"
     stroke="#000000"
     stroke-width="0.36"
     transform="translate(-199.82845,0.21120601)">
    <path
       id="path4"
       d="m 358.64258,42.789062 v 0.03516 h -33.10156 -0.008 -126.88867 v 10.402343 l 0.0117,0.002 0.0781,0.002 0.65234,-0.02344 0.11328,-0.0059 0.18164,-0.01563 0.12109,-0.002 0.0781,0.0039 0.1582,0.01367 0.0117,0.002 h 0.0215 l 0.70703,0.06641 0.32031,0.02344 0.20703,0.0059 0.36524,0.03516 0.13476,0.0078 0.18164,0.002 0.0664,-0.002 0.18945,-0.01172 0.24609,-0.0078 0.10743,-0.0078 0.34179,-0.01367 0.1543,-0.01563 0.26953,-0.03906 0.41211,-0.08594 0.30078,-0.05469 0.10547,-0.0039 0.11133,0.002 0.0117,0.0039 0.15234,-0.0059 0.1875,-0.01953 v 0.0293 l 0.14258,-0.01758 0.39062,-0.03711 0.23633,-0.01953 0.31055,-0.04102 0.22461,-0.02539 0.29492,-0.04102 0.4375,-0.05273 0.22461,-0.02344 0.12109,-0.02148 0.16016,-0.03516 0.28906,-0.04883 0.25782,-0.0293 0.48242,-0.03516 0.61718,-0.02148 0.38672,-0.02539 0.17188,-0.01367 0.26172,-0.02734 0.0976,-0.01758 0.12696,-0.03125 0.0996,-0.0332 0.0703,-0.01758 0.22265,-0.03516 0.10157,-0.0098 0.22851,-0.01172 h 0.17383 l 0.18359,0.0098 0.17579,0.01953 0.0976,0.01953 0.22852,0.02539 0.15039,0.0059 0.0996,-0.0059 0.14062,-0.01367 0.0684,-0.01172 0.16016,-0.03125 0.0469,-0.01953 0.0332,-0.02734 0.006,-0.0293 -0.0352,-0.07031 -0.0293,-0.07227 -0.0762,-0.0918 -0.008,-0.0293 0.0117,-0.01758 0.0332,-0.02148 0.17188,-0.07617 0.004,-0.01172 -0.0176,-0.0098 -0.13476,-0.0098 -0.0234,-0.0078 -0.0371,-0.01953 -0.0176,-0.02148 -0.041,-0.02148 -0.0664,-0.01172 -0.041,-0.01953 -0.0273,-0.03516 -0.002,-0.01758 0.0137,-0.03516 -0.01,-0.05273 0.0117,-0.01758 0.0352,-0.03125 0.01,-0.04102 -0.002,-0.0332 0.0176,-0.02539 0.0977,-0.04102 0.0605,-0.03711 0.0352,-0.01172 0.0859,-0.02344 0.13867,-0.02539 0.043,-0.01172 0.24023,-0.0098 0.0352,0.002 0.041,-0.0039 0.15235,0.0039 0.0449,-0.0059 0.0215,0.0059 0.0449,0.02539 0.0234,0.01758 0.0274,0.01172 0.0469,0.0059 0.0274,0.01172 0.0195,0.03516 0.0156,0.01563 0.0488,0.02148 0.01,0.04687 0.0469,0.0293 0.0195,0.02344 0.0508,0.02734 -0.006,0.0293 0.0215,0.0078 0.11328,0.01367 0.10742,0.03125 0.0664,0.02344 0.16797,0.03125 0.0957,0.0098 0.0488,0.01172 0.0977,0.03125 0.0684,0.0059 0.0156,0.0098 0.0117,0.01562 0.0605,0.02344 0.0332,0.05469 0.004,0.02539 0.0527,0.06445 0.0391,0.02344 0.16211,0.07617 0.0371,0.01172 0.0762,0.01172 0.0703,0.02734 0.0977,0.01953 0.0469,0.01758 0.0547,0.0098 0.0723,0.02734 0.0801,0.01367 0.0879,0.0078 0.0391,0.0078 0.0449,0.01367 0.125,0.01367 0.13867,-0.0059 0.0664,0.0078 0.0644,0.02344 0.0508,0.03125 0.0234,0.0293 0.043,0.03125 0.0371,0.01563 0.0703,0.01563 0.0332,0.03516 0.0352,0.06055 -0.0488,0.05273 0.0137,0.0078 0.0449,0.0039 0.0703,-0.02734 0.084,-0.01367 0.0312,-0.01367 0.0566,-0.04297 0.041,-0.0098 0.0684,-0.0039 0.0977,-0.0332 0.0488,-0.02734 0.0293,-0.0098 0.0332,-0.0039 0.0449,0.0039 0.0293,0.0098 0.0566,0.0332 0.0254,0.01953 0.01,0.03711 -0.0117,0.01953 0.0137,0.0078 h 0.0254 l 0.0664,-0.01367 0.0391,-0.002 0.0215,-0.0078 0.0117,-0.01367 0.15821,0.01563 0.043,0.0098 0.0312,0.01367 0.0273,0.02539 0.0137,0.02148 -0.004,0.02539 0.10351,0.08594 0.0293,0.03711 0.0781,0.05859 0.0371,0.01367 0.0371,0.0059 0.008,0.0039 0.0137,-0.002 -0.0527,-0.04492 -0.0254,-0.0332 -0.0332,-0.01563 0.002,-0.0078 0.0195,-0.0098 0.0469,-0.0078 h 0.01 l 0.0645,-0.01367 0.0684,-0.0039 0.0312,0.01367 0.0156,0.03125 0.0312,0.02148 0.0586,0.02148 0.0137,-0.0078 -0.0391,-0.03711 0.0137,-0.01367 0.0234,-0.0039 0.041,-0.01563 0.0156,-0.01563 0.11329,-0.04297 0.008,-0.01172 -0.01,-0.01367 -0.0234,-0.01172 0.008,-0.01172 0.0254,0.0039 0.0781,0.03125 0.041,0.0039 0.0195,-0.0059 0.006,-0.01367 -0.01,-0.01367 -0.0371,-0.02344 -0.01,-0.01953 0.004,-0.0078 0.0312,-0.02344 -0.004,-0.01953 0.0137,-0.0078 0.10547,-0.01758 0.0527,-0.01953 0.0645,0.0078 h 0.0312 l 0.0176,-0.0078 v -0.01172 l -0.0488,-0.01953 0.002,-0.0039 0.0508,-0.0039 0.15625,-0.0078 0.0469,0.02148 0.0293,0.0059 0.0156,-0.0078 v -0.01758 l -0.0508,-0.01563 -0.0137,-0.0098 0.002,-0.0059 h 0.0137 l 0.0703,0.01563 h 0.0156 l 0.0156,-0.0059 -0.041,-0.0293 0.006,-0.04297 0.0469,-0.02344 -0.008,-0.0059 -0.1211,-0.01172 -0.0176,-0.0039 -0.006,-0.0293 -0.0449,-0.03711 0.0254,-0.0039 0.0234,-0.01172 0.0234,0.002 0.008,0.0059 -0.0137,0.01367 0.0273,0.01172 h 0.0117 l 0.0312,-0.0078 0.0703,0.01367 h 0.0137 l 0.0293,-0.02344 0.004,-0.02539 0.0508,-0.0098 0.0273,-0.0098 -0.002,-0.0059 -0.0156,-0.0039 -0.0664,-0.002 -0.0137,-0.0059 0.008,-0.01758 -0.0352,-0.02148 -0.0137,-0.01953 -0.0273,-0.02148 0.004,-0.01367 0.0527,-0.02148 v -0.0098 l -0.0215,-0.0098 h -0.0195 l -0.0312,0.01367 -0.0117,-0.002 -0.0117,-0.01563 0.0117,-0.0332 -0.0234,-0.01367 0.006,-0.0039 0.0547,-0.0078 0.0215,0.002 0.0332,0.01172 0.0176,0.002 0.0312,-0.01172 0.008,-0.0078 -0.0547,-0.0332 -0.0449,-0.04883 -0.002,-0.03125 -0.0254,-0.01953 -0.0234,-0.0293 0.006,-0.02148 0.0469,-0.03125 0.0918,-0.03516 0.0312,-0.02344 0.0215,-0.0059 0.0352,-0.03711 0.0996,-0.02539 0.0293,0.0078 h 0.0176 l 0.15625,-0.02344 0.0664,-0.0039 0.0371,-0.01367 -0.002,-0.0098 0.0293,-0.01563 0.0234,-0.002 0.0195,-0.0078 0.0469,-0.03711 0.0352,-0.01563 0.0566,-0.01367 0.12891,-0.0098 0.0918,-0.01172 0.0508,-0.002 0.0488,0.0039 0.0273,-0.0059 0.0215,-0.01367 v -0.02344 l 0.0352,-0.02734 0.0156,-0.0039 -0.006,-0.0059 0.0371,-0.01172 0.0137,-0.01367 -0.0273,-0.01953 0.002,-0.0039 0.0469,-0.0078 0.0684,-0.01563 0.0977,-0.0078 0.0527,-0.01367 0.0254,-0.0098 0.0547,-0.0078 0.0254,-0.01367 h 0.0117 l 0.01,-0.0078 0.0391,-0.0078 0.0469,-0.002 0.0566,-0.01172 0.0918,-0.0293 0.0293,-0.002 0.006,-0.0059 0.16406,-0.03906 h 0.0488 l 0.0508,-0.01953 0.10157,0.002 0.0351,0.0098 h 0.01 l 0.0117,-0.0039 0.0566,-0.0059 0.0469,-0.01563 0.0488,-0.0059 0.008,-0.0059 0.0762,-0.01953 0.0371,-0.02148 0.0332,-0.01367 0.0234,-0.02148 0.0254,-0.0059 0.0215,-0.01563 0.0508,-0.0059 0.0195,-0.02148 0.0274,-0.01953 0.043,-0.01172 0.008,-0.01172 -0.0234,-0.0098 0.041,-0.03516 0.0254,-0.0059 0.0508,0.002 0.0723,0.0098 h 0.0254 l 0.0176,-0.0039 0.004,-0.0039 -0.0312,-0.01367 -0.004,-0.01563 -0.0195,-0.0098 0.006,-0.0059 0.0117,-0.002 0.0312,0.01563 0.0195,0.002 0.0137,-0.0078 0.0527,-0.01172 0.12109,-0.01172 h 0.0449 l 0.0215,-0.0059 0.0215,-0.01367 0.0293,0.0078 0.0508,-0.002 0.0547,-0.01172 0.11523,0.0039 0.0117,0.0039 0.0859,-0.01172 0.006,0.01953 0.0195,0.002 0.16601,-0.0039 0.0391,0.0098 0.0449,0.002 0.0351,-0.0098 h 0.0332 l 0.0312,-0.02148 0.0371,-0.0059 0.12304,0.0059 0.0312,-0.0059 0.0156,-0.01172 -0.002,-0.0078 -0.0391,-0.01367 0.01,-0.0059 0.0547,0.002 0.01,-0.0059 -0.0137,-0.0078 h 0.006 l 0.0937,0.01172 h 0.0781 l 0.10157,-0.01172 h 0.15234 l 0.0215,-0.0098 0.0371,-0.0332 h 0.008 l 0.002,-0.01758 0.0195,-0.01367 0.0488,-0.01563 h 0.0566 l 0.0547,-0.03906 0.0723,-0.0332 0.0879,-0.01953 0.0273,-0.0039 0.084,-0.0332 0.0449,-0.01172 0.0723,-0.0098 0.0371,0.0059 0.0371,-0.002 0.0234,-0.02148 0.0488,0.0078 0.0488,-0.002 0.0723,-0.01367 h 0.0508 l 0.041,0.0078 0.0625,0.03125 0.0156,0.01563 0.0254,0.0078 0.16797,0.002 0.01,0.002 0.0176,-0.0078 -0.0117,-0.01172 0.006,-0.02148 -0.0351,-0.01953 0.004,-0.0098 -0.006,-0.0059 h 0.0566 l 0.0176,-0.0039 0.002,-0.0059 -0.0195,-0.0078 0.008,-0.0098 0.0898,-0.01172 0.0859,0.002 0.041,-0.0039 0.0625,-0.01953 0.0293,-0.002 0.0625,0.01953 0.0215,-0.002 0.0195,-0.0039 0.0391,0.01563 h 0.0156 l 0.0195,-0.01367 0.0117,-0.02344 0.0371,-0.0098 0.0176,-0.0098 -0.01,-0.01367 -0.0742,-0.04883 -0.004,-0.01758 0.0137,-0.01563 -0.0195,-0.01563 0.0312,-0.01367 -0.002,-0.01172 -0.0176,-0.01172 -0.0566,-0.01172 0.008,-0.0078 0.0391,-0.0078 0.006,-0.0059 -0.041,-0.02344 -0.002,-0.02539 0.006,-0.01953 0.0391,-0.02148 0.0586,-0.01758 0.10938,-0.02148 0.12109,-0.01563 h 0.0293 l 0.0176,0.0059 h 0.0312 l 0.0527,0.01563 h 0.0566 l 0.0684,-0.0098 0.0469,-0.01953 0.0137,-0.002 0.0351,0.01172 0.0488,0.0059 0.0156,0.0059 -0.006,0.0098 -0.0234,0.01563 0.006,0.01172 0.0332,0.01367 0.0566,0.01367 0.0371,0.0039 0.10742,-0.0078 h 0.0527 l 0.0469,0.0078 0.0684,0.01758 0.0684,0.0293 0.006,-0.002 0.002,0.0039 -0.0801,0.02148 -0.004,0.0098 -0.0176,0.002 -0.0156,0.0078 0.01,0.01367 -0.0156,0.002 -0.0137,0.01172 -0.0723,0.0059 0.002,0.02539 0.0274,0.02734 0.0234,0.0098 0.0195,0.0039 0.0195,0.01172 v 0.01367 l -0.0254,0.0098 -0.043,0.01172 -0.0332,0.01563 -0.0137,0.01953 0.13086,0.0332 -0.002,0.002 0.13281,0.01563 0.17969,0.0078 0.082,-0.0039 0.0332,0.0078 0.0371,0.0039 0.0273,-0.01172 h 0.008 l 0.0488,-0.01953 0.0586,-0.0098 0.10156,-0.0332 0.0156,-0.002 h 0.0195 v 0.01172 l 0.0156,0.002 0.041,-0.002 0.043,0.0059 0.006,-0.002 -0.004,-0.01953 -0.0254,-0.01172 0.004,-0.0059 0.0566,-0.0098 0.0215,-0.01758 -0.008,-0.0078 -0.0293,-0.0098 0.008,-0.0039 0.082,0.002 0.0664,0.02148 0.0664,0.01172 0.0156,-0.02539 0.0137,-0.0059 0.0527,-0.0059 0.0586,-0.01758 0.0137,-0.02539 0.0527,-0.0293 0.004,-0.01367 0.0156,-0.0078 0.0215,-0.0039 0.0508,-0.002 0.0488,-0.01172 0.0391,-0.0039 0.041,-0.01367 0.0371,-0.0039 h 0.0527 l 0.0937,-0.01563 0.0469,-0.01758 0.0352,-0.0039 0.0215,0.002 0.0156,-0.0098 0.0195,-0.0078 0.01,-0.01563 v -0.01367 l 0.0234,-0.01367 0.0644,-0.02148 0.0274,-0.01563 -0.004,-0.01172 -0.0117,-0.01367 -0.0508,-0.01758 -0.0312,-0.002 -0.0215,0.0078 -0.0371,0.0293 -0.0371,0.01367 -0.0527,0.0059 -0.0957,-0.002 -0.10742,0.0078 h -0.0996 l -0.0293,-0.002 -0.0137,-0.0059 0.0137,-0.01563 0.0274,-0.02148 0.0547,-0.01758 -0.0312,-0.002 -0.0469,0.0059 -0.0234,-0.0059 -0.0547,0.0078 -0.0234,-0.002 -0.0449,-0.02148 -0.0449,-0.002 -0.0215,-0.0098 -0.0449,-0.002 -0.041,-0.01367 -0.0488,-0.03516 -0.0449,-0.02539 -0.01,-0.01953 -0.0195,-0.01367 -0.004,-0.01367 0.0215,-0.05078 -0.008,-0.01758 0.0156,-0.02539 0.0234,-0.01563 0.041,-0.01563 0.0742,-0.01172 0.0781,-0.0039 0.0547,-0.002 0.0664,0.0059 0.0879,-0.002 0.043,-0.0059 0.10351,-0.0293 0.0859,-0.01563 0.10156,-0.0039 0.0293,-0.0098 0.0605,-0.03125 0.0391,-0.0332 0.0391,-0.01367 0.0234,-0.0039 0.0371,0.01172 0.0527,0.02734 0.0156,0.01758 0.0176,0.08398 0.0469,0.02539 0.14062,0.04687 0.0684,0.01172 h 0.0625 l 0.0469,0.0078 0.0976,0.002 0.0606,0.02344 0.0332,0.01758 0.008,0.01172 -0.041,0.01953 -0.0234,0.02539 -0.0664,0.04492 -0.0117,0.01953 -0.082,0.04492 0.002,0.01563 0.0137,0.0039 0.0332,-0.0059 0.0527,-0.01758 0.1582,-0.01953 0.0274,-0.0078 0.008,-0.01172 -0.0137,-0.0332 0.0234,-0.0098 0.0273,0.0039 h 0.0234 l 0.0215,-0.0059 0.0137,-0.0078 -0.008,-0.01367 -0.0215,-0.01172 0.01,-0.0039 0.0723,-0.002 0.0273,0.0059 h 0.0176 l 0.0215,0.0059 0.0352,0.02344 0.0371,0.0098 0.0859,0.0059 0.0547,0.03125 0.01,0.002 0.0488,-0.0059 0.0117,0.0039 0.0391,-0.0039 0.0176,0.01367 0.0156,0.0039 h 0.01 l 0.0117,-0.0078 -0.006,-0.01172 0.0332,-0.002 0.0137,0.0039 0.0449,-0.01953 0.0488,-0.0039 0.0156,-0.002 0.0234,0.0039 0.0488,0.0078 0.0215,-0.002 0.0117,-0.0078 -0.0312,-0.02539 0.0117,-0.002 0.0391,0.0059 0.0312,-0.0039 0.0332,-0.01563 0.0293,0.002 0.0117,-0.0059 -0.0156,-0.0059 0.002,-0.0059 0.0254,-0.0098 -0.002,-0.0098 -0.0137,-0.002 -0.0273,0.002 -0.0508,0.01563 -0.0351,0.0059 -0.0352,-0.0059 -0.002,-0.01563 -0.0371,-0.002 -0.0156,-0.0078 -0.0449,0.0078 -0.0234,-0.002 -0.0234,-0.0078 -0.0195,-0.01953 -0.0527,-0.002 -0.0742,-0.0059 -0.0215,0.0039 -0.0293,0.01758 -0.041,-0.01172 0.002,-0.0059 0.0273,-0.01563 0.002,-0.0098 0.043,-0.02344 -0.006,-0.01367 -0.0645,-0.01367 -0.0176,-0.0078 -0.004,-0.0098 0.0156,-0.03711 0.0469,-0.02734 0.0351,-0.01563 0.043,-0.0078 0.0176,-0.0098 -0.0156,-0.01953 0.008,-0.0078 0.0449,-0.0098 -0.0137,-0.01758 0.006,-0.0039 0.0176,-0.0039 0.0117,0.0039 0.006,0.01172 0.0195,0.0059 0.0117,-0.002 0.01,-0.0098 0.004,-0.01563 0.082,-0.01563 0.01,-0.0078 -0.0176,-0.0078 -0.0488,-0.002 -0.0527,0.0078 -0.0332,-0.0078 h -0.0566 l -0.0723,-0.0039 -0.0449,-0.01172 -0.11914,-0.0039 -0.0605,0.002 -0.0254,-0.0078 -0.0176,-0.01172 -0.0215,-0.04297 0.004,-0.01758 -0.0195,-0.0293 -0.002,-0.01563 0.0215,-0.06055 v -0.02734 l 0.0586,-0.05078 0.0195,-0.03711 0.0254,-0.02539 0.0566,-0.02734 0.11914,-0.04102 0.0605,-0.04297 0.0469,-0.01563 0.0371,-0.0059 0.0879,-0.0039 0.0605,-0.01563 0.16016,-0.0078 0.0469,-0.0078 0.0254,-0.0078 0.0547,-0.0078 0.0274,-0.0078 0.0449,-0.02344 0.10351,-0.0039 0.0352,0.0098 h 0.0234 l 0.0254,-0.0059 0.0254,-0.01758 0.0137,-0.02148 0.12695,-0.06836 0.15625,-0.04688 0.0371,-0.02344 0.28516,-0.05664 0.0723,-0.01758 0.0879,-0.0078 0.0566,-0.01563 0.10937,-0.0039 0.0957,-0.0059 0.11329,0.002 0.20117,0.0078 0.10351,-0.002 0.22071,-0.02148 0.15234,-0.02734 h 0.0586 l 0.0879,0.0098 h 0.0332 l 0.15234,-0.01563 0.0469,-0.0098 0.0644,-0.0039 0.0234,-0.002 0.0371,-0.0078 0.0351,-0.01367 0.0352,-0.002 0.0703,0.01563 0.041,0.002 0.0684,0.02148 0.0586,0.0059 0.1543,-0.01172 0.0996,-0.0098 h 0.0508 l 0.20898,0.0078 0.0625,0.0059 0.11328,-0.002 0.0332,0.0039 0.12695,-0.002 0.0957,0.0039 0.14063,0.01172 h 0.0547 l 0.0586,0.01172 h 0.0547 l 0.0469,0.0078 0.0547,0.01563 0.0312,0.02344 0.0469,0.0098 0.0488,0.0059 0.11524,0.0293 0.0351,0.002 0.0195,0.0078 0.0176,0.02344 0.0391,0.02539 0.0918,0.03906 0.0859,0.04883 0.0371,0.03711 0.0137,0.0039 0.0254,-0.002 -0.006,0.03125 0.0254,0.01172 0.0996,0.02734 0.0176,0.02734 0.0176,0.01758 0.0351,0.0098 0.0391,-0.0098 0.0117,0.0059 0.0312,0.04492 0.0625,0.0332 0.0449,0.0078 0.0937,-0.002 0.0371,-0.0059 0.0391,0.0039 0.0332,-0.0039 0.0488,0.0098 0.0859,-0.0039 0.082,0.0059 0.0488,0.01172 0.0918,0.04297 0.0391,0.01172 0.043,0.0039 0.0332,0.0078 0.0273,0.02148 0.0391,0.01563 0.0586,0.0098 0.0469,0.01953 0.0586,0.01758 0.0293,0.01172 0.0391,0.03711 -0.0293,0.01758 -0.01,0.0332 -0.002,0.01563 0.0117,0.01172 0.0137,0.0059 v 0.01758 l -0.0176,0.0039 -0.0527,-0.0078 -0.0566,0.01367 -0.11719,0.0098 -0.0273,-0.01172 -0.0176,-0.002 -0.0156,0.0039 -0.0351,-0.01367 -0.0234,0.0078 -0.0371,-0.01367 -0.0117,0.0039 0.002,0.01172 -0.0215,0.0059 0.004,0.01953 -0.0332,0.02734 -0.0449,0.01953 -0.0781,0.01172 -0.01,0.0059 -0.0742,-0.0098 h -0.0996 l -0.13476,0.01172 -0.11914,0.02148 -0.0371,0.0098 0.01,0.0039 0.1211,-0.0078 0.1875,-0.02539 0.0293,0.002 0.008,0.0059 -0.0703,0.01758 -0.10937,0.0059 -0.0137,0.0098 0.008,0.01367 0.0391,0.01758 0.0273,0.002 0.12696,-0.01953 0.0469,-0.0039 0.0254,0.0039 0.0176,-0.01172 0.0117,0.01953 0.0176,0.0078 0.002,0.0078 -0.0117,0.0039 -0.0293,0.0039 -0.0781,-0.0059 h -0.0332 l -0.0234,0.0059 -0.004,0.0078 0.01,0.0059 0.0137,0.002 0.0586,-0.0059 h 0.0273 l 0.0469,0.0098 0.0117,-0.002 0.0312,-0.0078 v 0.0059 l -0.0273,0.0098 -0.0156,0.01367 -0.0566,0.0059 -0.0742,0.002 -0.008,0.0078 0.0117,0.01563 0.0176,0.0078 0.0332,-0.002 0.0547,0.0332 0.0566,0.01953 0.0879,0.02539 0.0352,0.002 -0.008,0.0098 0.0508,0.01563 0.0273,-0.0059 0.0176,-0.01172 0.10937,-0.0039 0.0156,-0.0059 -0.004,-0.0059 -0.0195,-0.002 -0.0527,0.0039 -0.0137,-0.0039 v -0.0059 l 0.0195,-0.0059 0.0488,-0.0039 0.0195,0.0039 0.041,0.03125 0.13281,0.0293 0.084,0.01367 0.0391,-0.0039 0.01,-0.0098 -0.0703,-0.0293 -0.006,-0.0098 0.0215,-0.01172 0.0234,-0.002 0.0742,0.01172 0.0215,-0.002 0.0234,-0.0098 0.0156,-0.01758 0.043,-0.02148 0.0742,0.01758 h 0.0312 l 0.0449,0.01367 0.0215,0.0098 0.0273,0.0039 0.043,0.02148 0.0215,0.0059 0.0664,0.0059 0.0312,0.0078 0.0527,0.0293 0.0488,-0.0039 0.0117,-0.0078 0.004,-0.02734 0.0215,-0.0059 0.0176,0.002 0.0215,0.01367 0.004,0.01953 0.0293,0.0098 0.0957,0.01563 h 0.0273 l -0.004,0.002 0.0527,0.02344 0.0606,0.01758 0.0547,0.0059 0.006,0.0059 0.004,0.02539 0.006,0.0059 0.0137,0.002 0.0645,-0.0098 0.0313,-0.01563 0.0723,-0.002 0.0449,-0.01367 h 0.0352 l 0.0332,0.0078 0.0508,-0.01172 h 0.0254 l 0.0547,0.0098 0.0606,0.01563 0.0449,0.01953 0.0215,0.01563 0.006,0.01562 0.0215,0.01172 -0.006,0.0039 -0.0176,0.0039 -0.008,0.0098 0.0195,0.01172 0.0371,0.0078 0.043,0.0039 0.004,0.0039 -0.0527,0.01953 -0.0723,0.0039 -0.0195,-0.0059 -0.0547,-0.0098 -0.0332,0.0059 -0.0547,-0.0078 -0.11328,-0.01953 -0.043,-0.002 -0.0195,0.002 -0.0195,0.01563 -0.008,0.02344 0.0176,0.01367 0.0547,0.01758 0.0586,0.0078 0.0664,0.002 0.0898,0.01563 0.0391,0.002 0.043,0.01172 h 0.0566 l 0.0723,0.02344 0.006,0.01953 0.0234,0.0059 0.0488,-0.002 -0.002,-0.03125 0.0137,-0.01563 0.0312,-0.01367 0.0742,-0.0098 0.0625,0.0039 0.0352,0.0059 0.0156,0.0098 -0.0117,0.01367 0.006,0.002 0.0273,-0.0098 0.0625,-0.0293 0.0156,-0.002 0.0137,0.002 -0.0371,0.01563 0.0293,0.0078 -0.0449,0.0039 -0.0195,0.0098 0.008,0.0059 0.0312,-0.002 0.0234,0.0078 0.01,0.02539 0.0117,0.002 0.0293,-0.01563 0.0215,0.0059 0.0156,0.0098 0.0293,0.0039 0.0391,-0.002 0.0176,-0.0059 0.0117,-0.01367 -0.006,-0.01367 0.006,-0.0098 0.0293,-0.01172 0.0332,-0.002 0.082,0.01367 0.0352,0.002 0.11914,-0.0098 0.0352,0.0059 0.0976,-0.002 0.10743,-0.01953 h 0.0762 l 0.0723,-0.0078 0.043,0.002 0.0332,-0.0039 0.043,-0.0078 0.0566,-0.01758 0.008,0.01563 -0.0176,0.01758 0.006,0.0039 0.0625,0.0078 0.0391,-0.002 0.0352,0.01563 0.0371,0.0098 0.0469,0.01758 0.0273,0.0039 0.0371,-0.0059 h 0.0234 l 0.0391,-0.0078 0.0215,0.0059 0.041,0.02539 0.0332,0.0039 0.0703,-0.0098 0.008,0.002 0.0176,0.0293 0.0215,0.01367 h 0.0117 l 0.0234,-0.0039 0.0273,0.002 0.0254,0.0078 0.0176,-0.002 0.0293,-0.0078 0.0352,-0.002 0.0625,0.0098 0.0957,-0.01953 0.0312,-0.01172 0.0215,0.002 0.002,0.01172 -0.0527,0.0293 0.004,0.0039 0.0352,0.0059 v 0.0039 l -0.0449,0.01367 -0.0254,0.01367 0.0684,0.01367 0.0977,-0.002 0.0254,-0.0039 0.0273,-0.01367 0.0918,-0.01367 h 0.0156 l 0.084,0.02344 h 0.0371 l 0.0664,-0.01172 0.10352,-0.002 0.0469,0.0098 0.10157,0.0059 0.0605,0.01367 0.0254,0.002 0.0195,0.0078 0.0801,0.0098 0.0391,-0.0039 0.0469,0.0098 0.0469,0.01758 0.0117,0.0098 0.0976,0.0098 0.11524,0.02344 0.0469,-0.0059 0.043,-0.0098 0.043,-0.002 0.17187,-0.05664 0.0684,-0.02539 0.0781,-0.01563 0.28125,-0.03125 0.0527,0.0059 0.0664,-0.01367 h 0.043 l 0.0586,0.01172 0.10156,-0.002 0.0742,0.0059 0.041,0.01172 0.0527,-0.0059 0.0742,0.0039 0.0801,0.0098 0.0547,0.01367 h 0.0508 l 0.0605,0.0098 0.0527,-0.0059 0.0547,0.0078 0.0703,0.01953 0.0176,-0.002 0.0801,0.02148 0.0488,0.002 0.0449,0.0078 0.0254,0.01172 0.0352,-0.01367 h 0.0137 l 0.0371,0.0293 0.0566,0.01172 0.31055,0.01367 0.0898,-0.002 0.0664,0.0098 0.11914,-0.0039 0.084,0.01172 0.0742,-0.002 0.0586,0.0059 0.0508,-0.002 0.0293,0.0059 0.0391,0.01367 0.0586,0.0098 0.23047,0.01563 0.041,0.0078 0.0898,0.02734 0.0762,0.01367 0.10742,-0.0098 h 0.0273 l 0.0957,0.0078 0.0781,-0.0039 0.0918,0.01172 0.11914,0.0039 0.0645,0.002 0.11523,-0.0039 0.0703,0.0098 0.13868,-0.01367 h 0.0605 l 0.10157,0.01172 0.0644,0.0098 0.10351,0.03711 0.0606,0.0098 0.37109,0.002 0.0664,0.0039 0.0195,0.0059 0.0762,-0.002 0.082,0.01563 0.0644,-0.0039 0.084,0.01953 0.0586,0.0059 0.0293,0.01367 0.043,0.0078 0.0332,0.002 0.0488,-0.0078 0.0547,-0.01367 0.0488,0.002 0.0937,0.0059 h 0.0703 l 0.14453,0.01172 h 0.10157 l 0.11914,-0.01367 0.13476,-0.02148 0.0293,-0.01172 0.0293,-0.02148 0.041,-0.01953 0.0293,-0.03516 0.002,-0.01758 0.0156,-0.01367 0.0176,-0.0039 0.0664,0.0039 0.1582,-0.01758 h 0.043 l 0.0664,0.0098 0.0527,0.01563 0.0176,0.01563 0.004,0.02148 -0.01,0.0293 0.01,0.01563 0.0254,0.01367 0.0156,0.02734 -0.008,0.01953 -0.0391,0.03516 -0.0234,0.04687 0.006,0.09961 0.0352,0.05664 0.0566,0.05273 0.12109,0.08789 0.082,0.04883 -0.006,0.01953 0.01,0.01563 -0.0156,0.05859 -0.0859,0.06055 -0.0625,0.02734 -0.008,0.0098 0.0137,0.02148 0.0313,0.02148 0.0312,0.0098 0.0215,0.01367 0.0664,0.01953 0.006,0.0078 -0.0195,0.02539 0.002,0.03906 -0.0195,0.01953 -0.0606,0.0293 -0.0762,0.02344 -0.24805,0.05859 -0.0332,0.0059 -0.17774,0.0039 -0.11328,0.01563 -0.0195,0.01172 0.0117,0.01367 0.0195,0.0059 -0.008,0.0078 -0.15039,0.02148 -0.0606,0.01563 -0.0371,0.01563 -0.0117,0.01367 0.004,0.0098 0.0254,0.0059 0.0371,0.002 0.084,-0.0059 0.19922,-0.02539 0.2168,-0.02344 h 0.16797 l 0.11914,-0.0098 0.0371,0.0039 0.0117,0.0078 -0.01,0.0098 -0.16992,0.06445 -0.22266,0.04297 -0.0859,0.02539 -0.0566,0.0098 -0.12304,-0.002 -0.0547,0.0078 -0.0547,0.01367 -0.0664,0.0059 -0.0859,-0.0059 -0.0332,0.0078 -0.0176,0.01758 0.0195,0.01563 0.0273,0.01172 0.082,0.01953 0.0859,0.0078 0.0664,-0.0039 0.20312,-0.03125 0.084,-0.002 0.0586,0.0039 0.0586,0.01563 0.0937,0.0332 0.0176,0.01367 0.01,0.05078 -0.0176,0.01563 -0.084,0.03906 -0.0488,0.0098 h -0.13672 l -0.16992,0.0098 -0.0703,-0.002 -0.0527,-0.0078 -0.19141,-0.04492 -0.11718,-0.01172 -0.0684,-0.002 -0.0879,0.0059 -0.10157,0.02148 -0.041,0.01367 -0.0215,0.02539 0.01,0.01563 0.0371,0.01367 0.0918,0.01758 0.10743,0.01172 0.0391,0.0098 0.0117,0.02148 -0.043,0.0293 -0.0742,0.01758 -0.13281,0.0078 -0.0352,0.0059 -0.0195,0.01367 0.0137,0.01953 0.125,0.05664 0.004,0.0078 -0.0352,0.01172 h -0.0391 l -0.17383,-0.02148 -0.0723,-0.0039 -0.0312,0.0078 -0.0176,0.01953 0.0137,0.03516 0.0234,0.01563 0.0644,0.01367 0.1543,0.01953 0.1289,0.0059 0.0879,0.0098 0.0977,0.0059 0.0645,0.0098 0.0391,0.01172 0.11523,0.07617 0.0176,0.03711 -0.008,0.01953 -0.0488,0.02539 -0.0488,0.01758 -0.10352,0.01953 -0.12695,0.01953 -0.0937,-0.002 -0.0644,0.0039 -0.0527,-0.002 -0.0664,-0.01563 -0.0684,-0.03125 -0.0469,-0.0098 -0.15429,0.02539 -0.1211,0.04883 -0.0312,0.01953 -0.0215,0.02344 0.006,0.0098 -0.0215,0.04687 0.004,0.03711 -0.0195,0.08008 -0.0293,0.05469 -0.0391,0.05078 0.15625,0.07031 0.1289,0.07227 0.0215,-0.0059 0.0293,0.0039 0.0781,-0.01953 0.0762,-0.0059 0.21485,-0.0039 0.0605,0.002 0.0332,0.0078 0.0176,-0.0039 0.0371,-0.02148 0.0684,-0.01953 0.10743,-0.01758 0.043,0.0078 0.0391,0.02734 0.0391,0.04687 0.0176,0.0625 0.0254,0.04492 -0.0274,0.148437 0.002,0.04883 0.0293,0.08008 0.14258,0.03516 0.42383,0.140624 0.26367,0.07813 0.10742,0.04297 0.0801,0.0293 0.34571,0.0957 0.29687,0.103516 0.0762,0.02734 0.0449,0.02539 0.0371,0.0098 0.0254,0.0039 0.0527,-0.02344 0.0449,-0.0039 0.0684,0.0039 0.0293,0.0098 0.0527,0.05273 0.0254,0.01367 0.0332,0.0059 h 0.0254 l 0.0566,-0.01953 0.0234,-0.01172 0.14649,-0.195313 0.0605,-0.04102 0.1875,-0.07617 0.17383,-0.05664 0.12696,-0.05273 0.12695,-0.07422 0.0703,-0.06055 0.0449,-0.06055 -0.01,-0.121093 0.0332,-0.01953 0.14258,-0.04492 0.13281,-0.0293 0.0703,-0.01367 0.0762,-0.0078 0.13086,-0.02539 0.0859,-0.02734 0.11524,-0.04687 0.0273,-0.01563 0.0176,-0.0293 -0.008,-0.03125 -0.0332,-0.02539 -0.39453,-0.164062 -0.004,-0.01367 0.0254,-0.01563 v -0.0098 l 0.0273,-0.01563 -0.0215,-0.01758 -0.043,-0.01953 -0.002,-0.0078 0.0234,-0.01172 0.0488,-0.0078 0.0293,0.002 0.0332,0.01172 0.0215,-0.002 0.043,-0.03516 0.0391,-0.0059 0.0586,-0.0039 0.0312,-0.0078 0.0215,-0.01758 0.0586,-0.01367 h 0.0723 l -0.0644,-0.01172 -0.004,-0.0098 0.0332,-0.01563 0.0371,-0.0039 0.0508,0.0059 -0.004,-0.01172 -0.006,-0.002 -0.002,-0.01758 0.0215,-0.01563 0.0977,-0.02734 0.0703,-0.03516 0.0801,-0.02148 0.17578,-0.02344 0.0488,-0.002 0.0488,0.0059 0.0449,0.01172 h 0.0176 l 0.0508,-0.02148 0.0859,-0.04492 0.15234,-0.03125 0.0781,-0.0039 0.0605,0.0059 0.0879,0.01367 0.084,-0.01172 0.0371,0.0039 0.0547,0.02148 0.0156,0.002 0.0547,-0.0078 0.0625,0.002 0.0273,-0.0059 h 0.0137 l 0.0117,-0.0293 0.0293,-0.002 0.11523,0.0039 0.0625,0.0059 0.0723,0.02344 0.0137,0.0098 -0.10156,0.03125 0.002,0.002 0.0215,0.0059 0.10547,0.02148 h 0.0195 l -0.004,-0.01953 0.043,-0.0078 h 0.0547 l 0.0527,0.0039 0.0176,-0.0039 0.0293,-0.02148 0.0625,-0.02148 0.0996,-0.01758 0.1211,-0.01367 0.0488,-0.002 0.0469,0.02344 0.0137,0.002 0.0645,-0.01758 0.0703,-0.0039 0.0215,-0.0039 v -0.002 l 0.10352,-0.05273 0.0117,-0.01953 0.0977,-0.09375 0.0469,-0.02734 0.0391,-0.002 0.0254,-0.0098 0.084,-0.08008 -0.002,-0.02148 0.0215,-0.0098 0.0117,-0.002 0.0332,0.0039 0.0117,0.01172 0.002,0.01563 0.0273,0.002 0.0156,-0.0059 0.01,-0.01758 0.0195,-0.002 0.0781,0.0078 0.0273,-0.0059 0.006,-0.0098 -0.0332,-0.01367 -0.002,-0.0059 0.0508,0.002 0.0293,-0.0098 0.0156,0.0039 0.002,0.01367 0.0195,0.0098 0.0273,0.002 0.0312,-0.0059 0.0547,0.01172 0.0332,-0.0078 0.0195,-0.01953 0.004,-0.02148 0.0117,-0.0039 h 0.0391 l 0.0156,-0.0059 0.0332,-0.0293 0.0586,-0.02344 0.01,0.002 -0.0274,-0.02734 0.006,-0.0098 0.0215,-0.0078 0.0293,0.002 0.0391,0.0098 0.0352,0.02148 h 0.0215 l 0.0273,-0.0059 0.01,-0.0098 -0.006,-0.03516 0.0117,-0.0078 0.0527,0.002 0.0293,-0.0078 0.0234,-0.0098 h 0.0723 l 0.0566,-0.01172 0.0781,0.0059 0.0274,-0.0078 0.0371,-0.01367 0.0195,-0.0039 0.0723,0.0059 0.0488,0.0078 0.0176,-0.002 v -0.02344 l -0.0254,-0.03516 0.006,-0.0098 0.0176,-0.0059 0.0527,-0.0078 0.0742,-0.002 0.084,0.002 0.1543,0.0098 0.0234,-0.002 0.0293,-0.0078 0.0137,-0.04297 0.0391,-0.02539 -0.0195,-0.03125 0.008,-0.01172 0.0527,-0.0098 0.0137,-0.0059 0.004,-0.01367 -0.043,-0.01367 v -0.01563 l 0.0293,0.002 0.0137,-0.002 v -0.0078 l -0.0469,-0.01563 -0.0156,-0.03711 0.0215,-0.0059 0.004,-0.0059 h 0.0156 l 0.0137,0.0078 h 0.0156 l 0.0273,-0.02148 0.004,-0.0098 -0.0234,-0.01758 0.01,-0.02344 0.0293,-0.02148 -0.006,-0.01562 -0.043,-0.01367 -0.0879,-0.01367 -0.0586,-0.01367 -0.0234,-0.01367 v -0.0039 l 0.0156,-0.0098 0.0508,-0.0078 h 0.043 l 0.13867,-0.02344 0.0234,-0.0078 -0.006,-0.0078 -0.0195,-0.0039 0.006,-0.01367 -0.0254,-0.002 -0.0156,0.002 -0.0176,0.0078 -0.0254,0.002 -0.008,0.01953 -0.0547,0.0059 -0.0195,-0.002 -0.0215,-0.01367 -0.008,-0.01758 0.0156,0.002 0.0137,0.0078 0.0176,-0.002 0.0254,-0.0098 0.20312,-0.01953 0.0371,-0.0078 0.004,-0.0059 -0.0254,-0.0059 -0.1836,0.01953 -0.0586,0.0039 -0.0254,-0.0039 0.002,-0.0098 0.0234,-0.01172 0.0137,-0.01563 0.043,-0.01172 0.0625,-0.0293 0.0156,0.0039 0.0156,0.01953 h 0.0215 l 0.0312,-0.0059 0.0273,0.0059 0.0742,-0.03906 0.0976,0.002 0.0566,-0.0059 0.0508,0.002 0.0293,0.0078 h 0.0312 l 0.0273,-0.0078 0.0117,-0.01367 -0.0254,-0.0059 -0.0488,-0.002 -0.084,0.002 -0.0312,-0.002 -0.041,0.0059 -0.0664,-0.01563 -0.0742,-0.0039 -0.0391,0.0039 -0.0703,0.02148 h -0.0117 l -0.004,-0.0078 0.0117,-0.0098 0.082,-0.01563 0.0195,-0.01367 h 0.0254 l 0.0391,-0.01953 0.0156,-0.002 0.0117,0.0039 -0.008,0.0078 -0.0176,0.0078 v 0.0098 h 0.0195 l 0.0293,-0.0059 0.0195,-0.01367 0.006,-0.01563 0.0371,0.01758 -0.006,0.0078 -0.0293,0.01953 -0.002,0.0098 0.0449,-0.002 0.0273,0.0059 0.0156,-0.0039 0.01,-0.02148 -0.006,-0.01172 0.006,-0.002 0.0254,0.002 0.01,-0.0059 -0.0371,-0.01758 0.0176,-0.0039 0.0527,0.002 0.0371,-0.0059 0.0273,-0.01563 -0.004,-0.02344 0.0117,-0.0098 0.0918,-0.02539 0.0664,-0.03906 0.10938,-0.04883 0.29492,-0.109375 0.12695,-0.03125 0.16016,-0.02148 0.33398,-0.06055 0.11719,-0.03906 0.0859,-0.01953 0.23437,-0.03516 0.16211,-0.01758 0.16211,-0.02734 0.0762,0.002 0.0664,-0.0059 0.0391,-0.0059 0.0566,-0.01563 0.0371,-0.002 0.0703,0.0078 0.0976,-0.0078 0.0859,-0.01563 0.11133,-0.0078 0.17187,-0.02539 0.0879,-0.02539 0.0274,-0.0059 0.13476,-0.0059 0.0801,-0.0059 0.0469,-0.0098 0.0977,-0.03906 0.1836,-0.01953 0.0957,-0.01953 0.0254,-0.0098 0.0391,-0.03516 0.0449,-0.01172 0.0879,-0.01367 0.0566,0.0059 0.10547,0.02539 0.0312,-0.002 0.0449,-0.01172 0.043,-0.01563 0.0312,-0.0059 0.0684,0.002 0.084,-0.01172 0.0566,-0.01367 0.13281,-0.05859 0.0879,-0.03125 0.0742,-0.01953 0.0586,-0.0098 0.16602,-0.01367 0.0645,-0.0098 0.041,-0.01367 0.0586,-0.03125 0.0859,-0.02344 0.0918,-0.01758 0.0859,-0.0098 0.0723,-0.01563 0.0371,-0.01563 0.0644,-0.05859 0.0664,-0.05078 0.0957,-0.02344 0.0703,-0.02734 0.082,-0.04687 0.0801,-0.03906 0.0547,-0.01172 0.0957,-0.0059 0.24805,0.01172 h 0.19727 l 0.10742,0.0059 0.0527,0.01367 0.0176,0.01172 0.002,0.04102 0.0274,0.03516 0.0351,0.0098 0.0254,0.002 0.0527,-0.0039 0.18555,-0.04297 0.0449,-0.0039 0.0234,0.002 0.0918,0.02539 0.0664,0.0039 0.0605,0.02148 h 0.0254 l 0.0391,-0.0078 0.0703,-0.01953 0.0723,-0.01367 0.043,-0.01563 0.0371,-0.02734 0.0195,-0.03125 0.0332,-0.01563 0.10742,-0.0078 0.041,-0.01172 0.0351,-0.01563 0.0508,-0.01172 0.084,-0.01367 0.10937,-0.01172 0.0469,-0.0098 0.0762,-0.0078 0.17187,-0.0039 0.084,-0.0078 0.043,-0.01172 0.1289,-0.04687 0.084,-0.02344 0.0937,-0.01563 0.10547,-0.01367 0.0488,-0.01172 0.0723,-0.02539 0.10352,-0.0098 0.10547,-0.0078 0.0547,-0.01172 0.0312,-0.01172 0.0371,-0.02539 0.0352,-0.03516 0.0391,-0.01367 0.043,-0.0059 0.11523,-0.002 0.15821,0.01563 0.008,-0.0039 0.10352,-0.01172 0.11523,-0.0039 0.11133,0.0039 0.10937,0.01172 0.0781,0.01367 0.0215,-0.002 0.0527,0.0078 0.0664,0.01758 0.1211,0.05078 0.0391,0.0059 0.0723,-0.002 0.084,-0.01172 0.12109,-0.0078 0.006,0.0078 0.0937,0.0039 0.0937,0.01563 0.0508,0.002 0.0176,0.0039 0.14844,0.0039 0.10742,-0.01953 0.0391,-0.0098 0.0117,-0.002 0.0215,0.0039 0.14258,-0.0039 0.0664,-0.0098 h 0.0566 l 0.0449,-0.01563 0.0703,-0.0059 0.0234,-0.0078 0.01,-0.02148 0.0176,-0.0078 0.084,-0.0078 0.0312,-0.01563 0.0215,-0.002 0.0586,0.01563 0.0371,-0.002 0.0371,-0.0059 0.0254,-0.0078 0.0254,-0.02148 0.041,-0.01953 0.043,-0.0098 0.082,-0.01172 0.0371,-0.01172 0.0254,-0.01758 0.0508,-0.01953 0.0293,-0.0039 0.0332,0.0078 0.0527,-0.01172 0.041,0.0078 0.0469,0.01563 0.041,-0.002 0.10937,-0.02539 0.0723,-0.02148 0.0723,-0.0098 0.0742,-0.01953 h 0.0723 l 0.041,-0.0098 0.0508,-0.02148 0.0351,-0.0098 0.0723,-0.002 0.0176,0.0059 0.0762,0.0098 0.0156,0.0059 0.041,0.0059 0.125,0.0039 0.0605,0.01367 0.0469,0.01758 0.084,0.04687 0.0352,0.01172 h 0.0312 l 0.0215,-0.02344 0.006,-0.002 0.0195,-0.002 0.084,0.01758 0.0723,0.04297 0.10743,0.01172 0.0469,-0.0059 0.0527,-0.01367 0.0254,-0.01367 0.0625,-0.01758 0.0254,-0.02539 h 0.0234 l 0.0449,0.01172 0.0176,0.0078 0.0547,0.01367 0.084,0.0098 h 0.0312 l 0.0254,0.0039 0.0781,-0.0059 0.10157,0.01367 h 0.0586 l 0.0449,-0.002 0.0723,0.0098 0.041,0.0098 h 0.0117 l 0.0176,0.0059 0.041,-0.002 0.0137,-0.0098 -0.0293,-0.02148 -0.002,-0.0098 0.002,-0.01172 0.0137,-0.0098 0.0293,-0.0078 0.0801,-0.0039 0.0234,-0.01758 0.0156,-0.002 h 0.0371 l 0.0117,-0.0039 0.01,-0.01758 0.0117,-0.002 0.0391,0.0059 0.0488,0.002 0.0508,0.0078 h 0.0215 l 0.0449,-0.0098 0.0371,-0.002 0.0254,0.0098 0.041,0.02344 -0.0137,0.02539 0.0195,0.02148 -0.004,0.0332 0.0625,0.002 0.0371,-0.0039 0.043,-0.01172 0.0781,-0.03906 0.0254,-0.01758 0.0137,-0.02539 0.0742,-0.03906 0.125,-0.01563 0.0449,0.0039 0.0625,0.02344 0.10352,0.02148 0.041,0.0039 h 0.0371 l 0.0605,0.0098 0.0195,-0.002 0.0176,0.002 0.0762,-0.01563 0.0273,0.002 0.0645,0.01172 0.0273,-0.002 0.0332,-0.0078 0.0254,-0.0293 0.0801,-0.01758 0.0762,-0.03516 0.0254,-0.002 0.0137,0.0059 0.01,0.01172 0.0371,0.01563 0.0195,0.01367 0.0195,0.02539 0.0293,0.0098 0.0566,-0.0039 0.0195,0.0039 0.0449,0.02539 0.0273,0.0293 0.0391,0.0098 0.0391,0.0059 0.041,-0.002 0.0176,-0.0039 0.0117,0.002 0.0645,-0.01172 0.0996,-0.0098 0.0527,0.002 0.10546,0.01172 0.0547,-0.002 0.0215,-0.0078 0.0547,-0.0059 h 0.0195 l 0.0645,0.04102 0.0312,0.0039 h 0.0137 l 0.0371,-0.01758 0.0488,-0.002 0.0195,0.0039 0.0215,-0.0039 0.19141,-0.05859 0.16406,-0.04492 0.0391,-0.0059 0.11523,0.0039 0.10156,0.01953 0.043,0.02148 0.0762,0.01563 0.0762,0.0293 0.01,0.0059 0.0547,0.01953 0.0195,-0.0078 0.008,-0.0098 h 0.0156 l 0.0293,0.01172 0.0195,-0.0098 0.0176,-0.002 0.0449,0.0078 0.0176,-0.0039 0.008,-0.01172 -0.0332,-0.0332 0.004,-0.0078 0.0351,-0.0039 0.0176,0.002 0.0156,-0.0039 0.006,-0.01563 h 0.0254 l 0.0351,0.0098 0.0469,0.02148 0.0625,0.002 0.0176,-0.002 0.008,-0.0059 0.0547,-0.01367 0.0664,-0.03711 0.0762,-0.02148 0.0703,-0.01563 0.0449,-0.0059 0.0937,-0.01367 h 0.0703 l 0.0312,0.0039 0.0195,-0.0078 0.0273,-0.02344 0.0527,-0.0078 0.0371,-0.02344 0.0195,-0.002 0.008,0.0039 -0.0156,0.02734 0.0371,0.02539 -0.0137,0.01367 v 0.0059 l 0.0469,0.01953 0.0195,0.0039 h 0.0918 l 0.0195,-0.0039 0.0957,-0.0293 0.0508,-0.02539 0.002,-0.01563 -0.0234,-0.0098 -0.0293,-0.0039 -0.0801,-0.002 -0.0312,-0.0078 -0.0293,-0.0039 -0.0371,0.002 -0.0273,-0.0039 -0.006,-0.0059 0.041,-0.02344 0.0332,-0.0059 0.082,0.0039 0.006,0.002 0.11718,-0.0078 0.0293,-0.0078 0.0117,-0.01758 -0.0664,-0.01758 -0.0273,-0.01172 -0.002,-0.01367 0.008,-0.01758 0.0215,-0.01367 0.0527,-0.02539 0.006,-0.0059 0.0137,-0.05664 -0.0176,-0.01367 -0.0645,-0.0332 -0.0449,-0.0332 -0.0703,-0.06641 -0.0234,-0.03711 -0.002,-0.01758 -0.0195,-0.02734 -0.0273,-0.06836 -0.0508,-0.04687 -0.01,-0.01563 -0.006,-0.02344 0.0156,-0.01953 0.0234,0.002 h 0.0137 l 0.21289,0.0293 0.0898,0.0078 0.10937,-0.0098 0.0352,-0.0059 0.0762,-0.0039 0.0469,0.01953 -0.002,0.0098 -0.0195,0.0059 0.002,0.0078 0.0312,0.0059 0.0273,0.0332 0.0117,0.0059 0.0137,0.0039 0.0117,-0.002 0.01,-0.0098 -0.004,-0.01367 0.008,-0.0039 0.0117,-0.0059 0.0195,0.0039 0.01,0.0078 0.006,0.0332 0.0293,0.0098 0.0234,0.002 0.0273,-0.0059 0.0469,-0.06055 -0.0273,-0.02148 -0.041,-0.02148 -0.041,-0.03516 0.006,-0.0098 0.0391,-0.01758 h 0.0273 l 0.0117,0.002 0.0527,0.02344 0.0156,-0.0098 0.002,-0.01758 0.01,-0.01758 0.0351,-0.01563 0.0312,-0.002 0.0781,0.01562 0.0137,0.0059 0.0254,-0.002 0.10547,-0.0332 0.0859,-0.0039 0.15625,0.01367 0.0234,-0.002 0.0254,-0.0059 0.008,0.002 0.002,0.0059 -0.002,0.0078 -0.0391,0.06055 -0.0645,0.05078 -0.0234,0.03516 0.01,0.06055 0.0371,0.03906 0.0156,0.0098 -0.006,0.01563 -0.0312,0.02148 -0.01,0.03516 0.0137,0.02148 0.0566,0.03125 -0.004,0.0078 -0.0547,0.01563 -0.0137,0.01172 0.0156,0.01563 0.0156,0.0039 0.15625,0.0078 0.0234,0.0059 0.0117,0.01367 -0.006,0.01172 -0.041,0.01953 -0.008,0.0098 0.008,0.0078 0.0176,0.0078 0.0293,-0.0059 0.0762,-0.03711 0.0332,-0.0059 h 0.0801 l 0.0273,-0.0293 -0.006,-0.0039 -0.0234,-0.0039 0.0117,-0.0078 -0.0176,-0.01172 0.0156,-0.0039 0.0625,0.0039 0.0273,-0.0039 -0.0176,-0.0059 -0.043,-0.002 -0.008,-0.0039 0.004,-0.0039 0.0391,-0.002 -0.004,-0.02148 0.0176,-0.0078 0.0391,0.0039 0.0215,-0.0098 h 0.0137 l 0.0469,0.02539 0.0195,-0.0039 0.0293,-0.01758 -0.0215,-0.0078 -0.0312,-0.002 -0.004,-0.0039 0.008,-0.0059 0.0488,-0.0098 0.004,-0.0059 -0.0195,-0.0078 0.002,-0.0039 0.0117,-0.002 0.0254,-0.01563 0.0137,-0.002 0.0137,0.0039 -0.004,0.0098 0.01,0.0039 h 0.0351 l 0.0195,0.0039 0.004,0.0059 -0.0117,0.0059 -0.0449,-0.002 -0.006,0.01563 -0.0234,0.0078 -0.01,0.0098 -0.0742,0.04297 -0.006,0.0098 -0.0312,-0.002 v 0.0078 h -0.0312 l -0.0156,0.02148 0.002,0.0078 0.082,-0.0039 v -0.0039 l 0.0644,-0.01367 0.0254,-0.002 0.0527,0.01172 0.0195,-0.0098 0.0645,-0.0059 0.0664,0.0059 0.0137,0.0039 -0.004,0.0098 -0.0527,0.002 -0.0117,0.0078 -0.0195,0.0039 -0.002,0.0078 -0.0313,0.0039 -0.0176,-0.002 -0.01,-0.01172 -0.0215,0.0039 -0.006,0.0059 0.0195,0.0098 -0.006,0.0059 h -0.0215 l -0.0312,0.0059 -0.0313,0.01563 -0.0234,0.0059 -0.0859,0.0059 -0.0176,0.0078 v 0.0059 l 0.0215,0.0039 h 0.0508 l -0.0176,0.01172 0.0117,0.0039 0.043,-0.002 0.006,0.0098 0.0371,0.01367 0.0137,-0.01172 0.0215,-0.002 0.0645,0.01758 0.0781,0.002 v -0.0078 l -0.0137,-0.0078 0.002,-0.0039 0.0254,-0.0039 0.0352,0.002 0.0195,-0.0078 0.002,-0.0098 0.0332,-0.0059 0.006,-0.0098 0.0899,-0.01367 0.0234,-0.01172 0.0195,-0.0059 -0.0156,-0.0039 0.0391,-0.002 0.0215,-0.0098 0.0137,-0.02344 0.0391,-0.03711 0.0176,-0.0039 0.0527,-0.0059 0.008,-0.01367 h 0.0215 l 0.0176,0.0039 0.0781,-0.04492 -0.0527,0.0059 -0.0351,0.0098 -0.0254,0.0039 -0.0176,0.0059 -0.0391,0.0039 h -0.0684 l -0.0176,-0.0059 -0.0312,-0.02148 -0.006,-0.0098 0.006,-0.0098 0.0645,-0.01758 0.008,-0.0039 -0.041,-0.0098 -0.006,-0.0039 0.01,-0.0059 0.0391,-0.0039 0.0351,-0.01563 0.0508,0.01563 0.0117,0.0078 0.0527,0.01172 0.0137,0.0078 0.0254,-0.002 0.0293,0.0078 h 0.0391 l 0.1289,-0.03125 0.0312,-0.002 0.0332,0.0059 0.0488,-0.002 0.0332,-0.0059 0.0312,0.002 0.0605,-0.0078 0.0742,0.0078 0.12305,-0.01758 0.15234,-0.0078 0.0664,-0.0078 0.0566,-0.01172 0.10547,-0.03516 0.0586,-0.01367 0.0449,-0.0039 0.0664,0.0059 h 0.0469 l 0.0195,-0.0059 0.0195,0.0039 0.0293,0.01172 0.0488,0.002 0.0762,0.0078 0.0312,-0.0039 0.004,-0.0059 -0.0234,-0.02148 0.004,-0.01172 0.0195,-0.0039 0.0312,0.0078 0.0957,0.04102 0.0742,0.02344 0.0684,0.01172 0.16797,0.01562 0.0586,0.01172 0.11718,0.03516 0.043,0.0078 0.0547,0.002 0.0469,-0.0039 0.082,-0.01758 0.13672,-0.0078 0.25195,0.05078 0.0254,0.002 0.041,-0.0039 h 0.0312 l 0.0781,0.0059 0.0937,0.002 0.0742,0.0098 0.0996,0.02148 0.082,0.01172 h 0.12891 l 0.0742,-0.0039 h 0.0508 l 0.12304,0.01172 0.15235,0.02539 0.0937,0.02148 0.0566,0.0098 0.082,0.0059 0.0508,0.0098 0.0371,0.0078 0.0625,0.0293 0.0469,0.01172 0.0645,0.0078 0.15039,0.01172 0.15625,0.04492 0.0918,0.01563 0.082,0.01758 0.0898,0.0332 0.0645,0.01367 0.0352,0.002 0.0176,0.0039 0.0215,0.01172 0.0312,-0.002 0.0293,-0.0059 0.0293,-0.03711 0.008,-0.0039 h 0.0176 l 0.0156,0.0039 -0.0156,0.02344 v 0.02539 l -0.0215,0.02148 0.0449,0.0078 0.13867,0.0078 0.0371,0.02539 h 0.0605 l 0.13281,0.03906 0.0371,0.0039 0.12305,-0.0059 0.0254,0.002 0.0664,0.02344 0.0234,0.0039 0.0742,-0.002 0.043,0.0098 0.0742,0.02344 0.10742,0.01953 0.084,0.0039 0.0605,-0.002 0.043,0.0059 0.0547,0.01367 0.0625,0.02344 0.01,0.0098 0.0234,0.0098 0.0586,-0.0059 0.01,0.002 0.0605,-0.01758 0.0273,-0.002 0.0332,0.0059 0.0469,0.01367 0.0508,0.0078 0.0312,0.01563 0.0899,0.05664 0.0332,0.03516 0.041,-0.0059 0.0117,0.0059 -0.004,0.01563 0.0195,0.0078 0.0723,0.01172 0.0391,0.01758 0.0312,0.0059 0.0742,0.0039 0.0156,0.0039 0.0352,0.02148 0.0625,0.04883 0.0293,0.04297 0.0469,0.02148 0.0352,0.0059 h 0.0605 l 0.0527,-0.0098 0.0293,-0.01172 0.0176,-0.01367 0.0176,-0.0059 0.041,-0.002 0.11719,0.01758 0.0215,0.002 0.0137,-0.0039 0.006,-0.0098 -0.041,-0.02148 -0.002,-0.0078 -0.0293,-0.01758 0.006,-0.0098 0.0234,-0.0039 h 0.0117 l 0.0234,0.0078 0.0371,0.0332 0.0313,0.0098 0.0332,-0.0039 0.0156,-0.01953 -0.0918,-0.05469 0.008,-0.0059 h 0.0117 v -0.01758 l 0.0215,-0.0078 0.01,-0.01367 0.0273,-0.0039 0.0137,-0.0059 0.002,-0.0098 -0.0449,-0.01758 -0.008,-0.0098 0.0312,-0.0039 0.0176,-0.01367 0.0215,-0.0293 0.0274,-0.0039 0.0742,0.01953 0.0293,0.0039 0.0449,-0.0098 0.0273,-0.02148 -0.0254,-0.0059 -0.0195,0.0039 -0.0195,-0.0078 0.002,-0.01563 -0.0176,-0.01563 0.006,-0.0059 0.0742,0.002 0.0762,-0.0098 0.01,-0.0059 0.0312,-0.0078 0.13672,-0.01367 h 0.0351 l 0.0234,0.0039 0.0137,0.0098 0.041,0.03711 0.0566,0.01172 0.0664,0.0039 h 0.13282 l 0.082,-0.0039 0.0469,-0.0078 -0.0273,-0.02344 -0.01,-0.02148 -0.0117,-0.0039 -0.0391,-0.0039 -0.008,-0.0059 0.006,-0.0059 0.0273,-0.0039 0.01,-0.0059 0.0176,-0.0039 0.0371,-0.01953 0.0332,-0.02539 0.004,-0.02734 0.01,-0.0098 0.0156,-0.002 0.0312,0.02344 0.0273,0.0098 0.0117,0.01172 0.0469,0.01563 0.0273,-0.002 0.0156,-0.03516 0.0254,-0.01758 -0.002,-0.03125 0.0117,-0.0039 0.041,-0.0039 0.01,-0.0078 -0.01,-0.0078 0.006,-0.0098 0.0488,-0.01367 0.004,-0.0039 -0.008,-0.0098 -0.0195,-0.0039 -0.043,-0.002 -0.006,-0.0039 -0.002,-0.01953 -0.0117,-0.0059 -0.0508,0.0039 -0.0273,-0.0059 0.01,-0.02539 0.0293,-0.01953 -0.0176,-0.0098 0.006,-0.01172 -0.006,-0.01563 0.008,-0.0098 0.01,-0.0059 0.0547,-0.0098 0.0488,-0.002 0.0449,-0.01758 0.0352,-0.05469 0.0254,-0.02344 0.0273,-0.01367 0.0332,-0.0059 0.0312,-0.02539 0.006,-0.01367 0.0176,-0.002 0.0391,-0.01953 0.0352,-0.0098 0.0312,-0.0078 0.0684,-0.002 0.0937,-0.02148 0.0527,-0.01367 0.0449,-0.0078 0.0899,-0.0332 0.0332,-0.0059 h 0.0312 l 0.0664,-0.0098 0.0488,-0.01562 0.0605,-0.0078 0.16211,-0.0098 0.20313,0.0098 0.0723,-0.0078 0.18555,-0.02539 h 0.0742 l 0.0312,-0.0039 0.0566,0.0039 h 0.0371 l 0.0566,-0.01563 0.0488,0.0059 0.0527,-0.01367 0.0703,-0.02344 0.043,-0.0078 0.0586,-0.0059 0.0176,-0.0059 0.0293,-0.01758 0.0352,-0.0098 0.0527,-0.0078 h 0.0254 l 0.0449,-0.0098 0.0664,-0.01953 0.0254,-0.0039 0.0371,-0.01172 0.16406,-0.0332 0.1211,0.0078 0.0488,0.0098 0.0488,0.01563 0.0703,0.05273 0.043,0.04102 0.12305,0.05469 0.0527,0.03125 0.0527,0.03516 0.0156,0.01563 0.0391,0.0078 0.0293,0.01367 0.0664,0.04687 0.0176,0.0078 0.0293,0.0059 0.0371,0.0039 0.0527,-0.0039 0.0547,0.002 0.0449,0.0039 0.0293,0.0078 0.0332,0.01367 0.0586,0.03906 0.0586,0.04492 0.0176,0.0078 0.0859,0.01563 0.0586,-0.0039 0.041,0.0059 0.004,0.0059 -0.0215,0.01563 -0.0371,0.01563 -0.0195,0.01758 -0.0156,0.02539 0.006,0.0078 0.0352,0.0078 0.0332,0.0039 0.0254,-0.002 0.0254,0.0039 0.0117,0.0078 0.002,0.01563 -0.0137,0.02734 -0.0156,0.0098 -0.01,0.01953 -0.0312,0.02344 -0.0371,0.01563 0.002,0.01953 0.0449,0.02148 0.11133,-0.05273 0.0312,-0.01172 h 0.0254 l 0.0586,0.02539 0.0117,0.0078 0.0156,-0.0078 0.0644,0.02148 0.0176,0.01563 0.0273,0.01563 0.004,0.0078 -0.0684,0.02734 0.0723,-0.002 0.0644,-0.01563 0.0547,-0.01758 0.0371,-0.0039 0.0664,0.01367 0.0469,-0.02539 0.0176,-0.01758 0.0293,-0.0098 0.15235,-0.01563 0.0488,-0.01953 0.0488,-0.0078 0.0508,-0.0039 0.041,-0.002 0.11719,-0.01172 0.15234,-0.0078 0.19531,0.0078 0.0898,0.01172 0.0879,0.01758 0.0293,0.0098 0.041,0.01953 0.0293,0.01953 0.0391,0.01563 0.0332,0.0098 0.043,0.01758 0.0801,0.05664 0.0449,0.01172 0.12891,0.01563 0.0332,0.0098 0.0332,0.02148 0.0234,0.02539 0.004,0.01367 0.0449,0.06445 0.0449,0.02539 0.0723,0.05664 0.0723,0.03906 0.0605,0.0098 0.0332,0.02148 0.0918,0.0293 0.0449,0.01172 h 0.0547 l 0.0332,0.0059 0.0391,0.0078 0.0605,0.01953 0.0684,0.01172 0.0996,0.01367 0.0547,0.01367 0.0625,0.02539 0.0234,0.0039 h 0.0469 l 0.0898,-0.01953 0.0742,-0.0078 0.0547,0.0098 0.0156,0.0059 0.2168,0.04492 h 0.0391 l 0.0274,-0.0059 0.16992,-0.09375 0.0566,-0.01172 0.0312,-0.002 0.29102,0.02148 0.0879,-0.0039 0.0566,-0.0078 0.15039,0.0078 0.084,-0.0098 0.10352,0.0078 0.008,0.0039 0.11914,0.01758 0.0801,-0.0039 0.0293,-0.0039 0.0254,-0.01172 0.01,-0.0098 0.0274,-0.0039 0.0508,-0.002 0.041,-0.01563 0.084,-0.0078 h 0.10547 l 0.0723,-0.01367 0.13672,-0.01172 0.0469,-0.0078 h 0.14062 l 0.0488,-0.01758 0.0351,-0.0039 0.0703,-0.002 0.0664,0.0098 0.0312,0.01172 0.0332,0.01953 0.0625,0.01563 0.0391,0.0039 0.0293,-0.002 0.0195,-0.0059 0.006,-0.0059 0.041,-0.01367 0.11133,-0.01563 0.0566,-0.0293 0.0645,-0.02539 0.0996,-0.01367 0.006,0.002 0.0215,0.03125 0.004,0.07422 0.0137,0.02539 -0.006,0.03516 0.002,0.05859 -0.01,0.02148 -0.0117,0.0098 -0.0195,0.05273 v 0.0098 l 0.0234,0.002 0.28711,-0.06055 0.35938,-0.05273 0.0449,-0.0039 0.10742,-0.01953 h 0.041 l 0.0508,-0.0078 0.16015,-0.01367 0.0625,-0.01367 0.10742,-0.0078 0.0703,-0.01172 0.16406,-0.01758 0.16016,-0.02148 0.10351,-0.0098 0.29297,-0.04883 0.14258,-0.01367 0.29492,-0.03906 0.0781,-0.01563 0.11328,-0.01172 0.12695,-0.02148 0.13867,-0.01563 0.18164,-0.02344 0.082,-0.0078 0.12696,0.0098 0.11914,-0.002 0.14257,-0.01758 0.0723,-0.01562 0.0586,-0.01953 0.0137,-0.02148 0.041,-0.03906 0.0508,-0.01367 0.0391,-0.0098 0.13086,-0.01563 0.0937,-0.02148 0.0488,-0.01562 0.0781,-0.03711 0.17187,-0.04297 0.041,-0.0078 0.084,-0.0059 0.0566,-0.0098 0.0859,-0.02734 0.0664,-0.02539 0.0898,-0.02734 0.0371,-0.0078 h 0.0293 l 0.0195,-0.0039 0.0664,-0.01172 0.0879,-0.0078 0.0508,0.0078 0.082,0.01758 0.13086,0.04883 0.20117,0.04883 0.041,0.0078 0.10546,0.0078 0.0215,0.0078 0.0566,0.05078 0.0605,0.02539 0.0527,0.02734 0.18945,0.0293 0.13868,0.02734 0.0859,0.0059 0.0352,0.0059 0.0332,0.01172 0.008,0.0098 -0.0195,0.04297 0.0176,0.03516 0.0274,0.01953 0.14257,0.04687 0.0742,0.03516 0.0156,0.01172 0.002,0.03516 0.0312,0.02148 0.11328,0.04883 0.0566,0.03125 0.0391,0.0293 -0.01,0.02148 -0.0234,0.01172 0.002,0.01758 0.01,0.0039 0.11914,0.01172 0.0781,0.002 0.0469,-0.0039 0.16406,0.0059 0.041,-0.0039 0.043,-0.0078 0.041,-0.0039 0.10938,0.0098 h 0.0664 l 0.0156,-0.0039 0.008,-0.0059 -0.0312,-0.02734 0.0391,-0.0098 0.33399,-0.0039 0.0293,0.0039 0.2207,0.04102 h 0.0605 l 0.0996,-0.0098 0.0742,-0.01563 0.0566,-0.02148 0.0781,-0.05078 -0.008,-0.04297 0.01,-0.0098 0.0547,-0.02344 0.0137,-0.0098 -0.0215,-0.03125 0.004,-0.01367 0.0703,-0.03516 0.01,-0.0098 -0.002,-0.03516 -0.01,-0.02148 -0.0215,-0.01367 -0.0215,-0.01172 -0.041,-0.0098 -0.01,-0.01367 -0.0352,-0.01563 0.0176,-0.01367 0.004,-0.03711 0.0215,-0.0332 0.0215,-0.01758 0.0703,-0.03906 0.0312,-0.03125 0.0195,-0.04687 0.0312,-0.05078 0.0977,-0.06055 0.0332,-0.01563 0.0508,-0.03711 0.004,-0.01172 -0.0215,-0.01758 L 308.52539,49 l -0.0859,-0.04297 -0.0684,-0.02344 -0.043,-0.01953 -0.12695,-0.04687 -0.0312,-0.01563 -0.006,-0.0098 -0.0586,-0.04102 0.008,-0.01758 0.0273,-0.01758 0.0742,-0.0078 h 0.0606 l 0.0332,-0.002 0.0293,-0.0078 0.0273,-0.0039 0.0234,0.002 0.0703,0.01953 0.0684,0.01172 0.0723,0.0078 0.0254,0.0059 0.0176,0.0098 0.0664,0.01758 0.0586,0.02344 0.043,0.0059 0.12109,0.002 0.10352,0.0098 h 0.0586 l 0.0312,0.002 0.0605,0.01367 0.32226,0.02148 0.0664,0.0098 0.0664,0.01953 0.01,-0.002 0.0996,0.02539 0.0723,0.01367 0.10546,0.01563 0.13086,0.0293 0.01,-0.002 0.0781,0.01172 0.16211,0.01367 h 0.22071 l 0.0469,-0.0039 0.0684,-0.01172 0.11524,-0.03125 0.0391,-0.0059 0.14258,0.0078 0.0801,-0.01367 0.084,-0.0078 0.0371,0.002 0.0996,0.03906 0.13281,0.01953 0.0273,0.002 0.0527,-0.0039 0.13476,-0.0332 0.0742,-0.0039 0.0547,-0.02539 0.0371,-0.0039 0.0449,-0.0098 0.0645,-0.0059 0.0625,-0.01758 0.0352,0.0039 0.0449,-0.0078 0.043,-0.002 0.0449,0.0059 h 0.0762 l 0.0879,0.01367 h 0.0254 l 0.0273,-0.01367 0.0605,-0.002 0.0527,0.0098 h 0.0391 l 0.0586,0.02734 0.0176,0.01172 v 0.0098 l 0.0117,0.0098 0.0195,0.0098 0.0625,0.01367 0.14843,0.01953 0.0371,-0.01367 0.043,-0.04883 0.0137,-0.0039 0.0195,-0.01758 0.0352,-0.01563 0.10156,-0.01953 0.0664,-0.01562 0.002,-0.01563 -0.0137,-0.01367 0.0117,-0.0059 0.0449,-0.0039 0.0117,-0.0039 0.0137,-0.02734 0.0156,-0.0059 h 0.0801 l 0.0215,-0.0059 0.0312,-0.01953 -0.0273,-0.02734 h -0.0137 l -0.0176,0.0078 -0.0176,-0.0039 -0.0137,-0.0098 -0.002,-0.01758 -0.0332,-0.01758 0.004,-0.0078 0.0254,-0.0039 0.008,-0.01172 0.0156,-0.0098 0.0176,-0.0039 0.0234,0.002 0.0137,-0.002 0.0254,0.0039 0.0527,-0.0098 0.006,-0.0039 -0.0195,-0.01953 0.0371,-0.01563 -0.004,-0.0078 -0.0195,-0.0059 0.0195,-0.0078 0.008,-0.0098 -0.0176,-0.02148 -0.0293,-0.01172 V 48.5625 l -0.0293,-0.02734 -0.0156,-0.0078 -0.0117,-0.01172 -0.0176,-0.0039 -0.0274,0.0039 -0.0215,-0.002 -0.002,-0.0098 0.0156,-0.02148 -0.0176,-0.02148 -0.0215,-0.0059 -0.0508,-0.02148 -0.041,-0.02734 -0.01,-0.02148 0.004,-0.01172 h 0.0137 l 0.006,0.0059 0.0117,0.002 0.0156,-0.0098 h 0.0273 l 0.002,-0.02148 0.0156,-0.01563 0.004,-0.0098 -0.0176,-0.02148 -0.006,-0.02344 -0.0117,-0.0098 -0.0156,-0.0293 0.006,-0.01563 0.0293,-0.0293 -0.008,-0.01367 v -0.02539 l 0.006,-0.0098 0.0176,-0.0059 0.0254,-0.01758 0.0273,-0.0039 0.0273,-0.0078 0.0391,-0.002 0.0215,0.0039 0.0215,0.01367 0.0195,0.0039 0.0313,-0.0059 0.0156,-0.0098 0.0215,-0.002 0.0156,-0.0098 0.0195,-0.0059 0.0176,-0.002 0.0156,0.0039 0.0762,0.05078 0.0645,0.03125 0.043,0.01367 0.0645,0.03906 0.0332,0.02734 0.0723,0.04297 0.0273,0.01172 0.0293,0.0078 0.0273,0.01367 0.0937,0.03516 0.0254,0.01367 0.008,0.0078 0.004,0.0078 -0.01,0.03906 0.0156,0.0078 0.0234,0.02344 -0.006,0.0293 -0.0547,0.05078 -0.0137,0.01758 -0.0391,0.109376 -0.0234,0.03125 -0.0215,0.01562 -0.0547,0.01953 -0.0273,0.0039 -0.0508,0.01953 -0.0215,0.01367 -0.0176,0.02148 -0.002,0.01953 0.0254,0.0059 0.0332,-0.0039 0.0117,-0.0078 0.0195,-0.02148 0.0195,-0.0078 0.0371,-0.0039 h 0.0234 l 0.0195,0.01758 0.0234,0.0293 -0.002,0.0078 -0.0117,0.01172 0.0508,0.01172 h 0.0508 l 0.0195,0.0078 0.0156,0.01172 0.0293,0.0039 -0.0195,0.0293 0.11914,0.0039 0.0352,0.0059 0.0488,0.01563 0.0449,0.02734 0.082,0.0332 h 0.0469 l 0.10547,-0.0625 0.043,0.0059 0.0176,0.01172 0.0195,-0.002 0.01,0.002 0.008,0.0098 -0.0273,0.01758 -0.002,0.01563 -0.041,0.02148 0.008,0.0293 0.0234,0.0059 0.0234,0.01953 0.0137,0.0039 0.0449,-0.0078 0.0254,0.0039 0.0176,0.02344 -0.002,0.01172 0.0117,0.0098 0.0234,0.0078 0.0293,0.002 0.0273,-0.0078 0.0391,-0.002 0.0254,0.0039 0.0332,0.03516 0.0723,0.04883 0.0195,0.0059 0.0508,0.002 0.0156,-0.01172 0.0273,-0.0098 0.11329,-0.0078 0.0371,-0.0078 0.0449,-0.01758 0.0937,-0.002 0.0918,-0.01758 0.12305,0.0078 0.29102,0.02734 0.0859,0.002 0.10743,0.01758 0.17382,0.0078 0.0508,0.0098 0.0469,0.01172 0.0801,0.04297 0.28711,0.0625 0.18945,0.02539 0.22852,-0.01367 0.0605,0.01953 0.10352,0.01563 0.5039,-0.0039 0.17969,0.03516 0.16016,-0.0098 0.0234,0.01953 -0.0234,0.01367 0.35156,0.07813 0.15625,0.04492 0.30078,0.0059 0.10938,-0.02344 0.38086,0.02539 0.11132,0.03125 0.043,-0.01367 0.041,-0.01758 0.25391,0.09961 0.22265,-0.05859 0.33399,0.0098 0.17382,0.0332 0.12305,0.05078 0.0488,0.0625 0.12695,0.06055 0.16211,0.0332 0.31446,-0.03516 0.3164,-0.101562 0.23047,-0.0332 0.26953,0.03125 0.125,0.04687 -0.0488,0.08203 0.0586,0.05469 0.0625,0.01563 0.14062,-0.002 0.32227,-0.07812 0.0898,0.002 0.14258,0.07227 0.0312,0.08594 0.14648,-0.01563 0.0781,-0.06836 0.46875,-0.191406 0.0508,0.0098 -0.0469,0.05078 0.0469,0.05859 h 0.043 l 0.17187,-0.09766 -0.0117,-0.04102 -0.0938,-0.0332 0.11719,-0.02344 0.27149,-0.01172 0.23047,0.04102 0.19531,-0.02148 0.21289,0.01953 0.37109,0.171875 -0.0195,0.07813 -0.13476,0.117187 -0.0605,0.02344 -0.57617,0.09766 -0.50977,0.08398 -0.25,0.121093 -0.0371,0.0625 0.44922,0.0332 0.33399,-0.03516 0.1875,0.05078 0.0508,0.04688 0.0957,0.02539 0.20703,-0.0039 0.0273,0.02148 -0.10937,0.08594 0.0234,0.02344 0.22656,-0.0293 0.17773,0.05859 0.006,0.002 0.13867,0.04102 0.44336,-0.05078 0.3125,-0.07031 0.63282,0.0098 0.043,0.03125 -0.008,0.08008 0.13282,0.302734 -0.008,0.05469 -0.18359,0.04687 -0.36328,-0.05078 -0.22461,0.01758 -0.0723,0.0293 0.1211,0.03711 0.0156,0.01953 -0.0312,0.02344 0.53125,0.03711 0.71485,-0.109375 0.43164,0.03906 0.25586,0.09375 0.82617,-0.107421 0.375,-0.05078 0.0351,0.01172 0.0449,0.134766 -0.0742,0.08594 0.0449,0.101563 0.12305,0.05469 0.19921,0.04102 0.5,-0.0078 0.16602,-0.02734 0.14258,-0.05273 0.2207,-0.166015 0.23633,-0.06055 0.38672,0.0098 0.10937,-0.02344 0.043,0.04687 0.11328,0.01953 0.17578,-0.04297 0.0508,-0.07227 0.0566,-0.02344 h 0.24414 l 0.36914,0.121094 -0.01,0.04687 0.11914,0.04297 0.1836,-0.01758 0.21093,0.05273 0.0762,0.08789 -0.34571,-0.0332 0.21094,0.09766 -0.041,0.04492 -0.14453,0.0293 0.26563,0.15625 0.15039,0.06641 0.14453,0.0059 0.13672,-0.123047 0.1543,-0.002 0.0469,0.01953 0.0879,-0.01563 0.125,0.0625 0.12891,-0.0098 0.31054,0.0293 0.0449,0.05078 0.0547,0.002 0.0879,0.01367 0.0977,0.0098 0.0918,0.01172 0.0527,0.0039 0.0371,0.01172 0.0273,0.01953 0.11915,0.04492 0.0605,0.0332 0.0391,0.01562 0.0254,0.0059 0.043,0.002 0.0156,-0.0098 0.008,-0.05469 0.0117,-0.0059 0.0293,-0.002 0.0351,0.0039 0.0254,0.0078 0.0176,0.01367 -0.0215,0.03125 0.0684,-0.01172 0.0234,-0.002 0.084,0.0059 h 0.0254 l -0.0391,-0.05469 0.006,-0.01563 -0.0156,-0.04102 -0.0293,-0.01953 0.0176,-0.0078 0.0195,0.0059 0.0469,0.03516 0.0215,0.002 0.0254,-0.01367 -0.004,-0.01367 -0.0117,-0.01367 -0.0469,-0.02344 -0.0312,-0.0293 0.0156,-0.0098 0.0254,0.002 0.0449,0.01953 0.0586,0.04492 0.0293,0.04492 0.0293,0.01758 0.11133,0.107422 0.043,-0.0039 0.0273,-0.0098 0.0469,-0.0332 0.0352,-0.0098 0.0273,0.002 0.0215,0.0098 0.0273,0.02148 0.0332,0.0059 h 0.043 l 0.0274,-0.0098 0.0156,-0.01953 0.0254,-0.0078 h 0.0293 l 0.0332,0.002 0.0195,0.01367 0.0312,0.01563 0.0586,0.0098 0.0391,0.01758 h 0.0195 l 0.0977,0.01172 0.11133,0.02539 0.043,0.01563 0.0215,0.01758 -0.004,0.02539 0.0352,0.01367 0.008,0.0098 -0.006,0.0078 0.0684,0.01953 0.0352,0.01367 0.0234,0.002 0.0195,-0.002 0.0156,0.002 0.0195,-0.002 0.0605,-0.01953 -0.0195,-0.01172 0.004,-0.0059 0.0586,-0.002 0.0176,0.0098 0.0156,0.002 0.0156,-0.0059 0.0508,-0.0078 h 0.0391 l 0.0195,0.0059 0.0156,0.0098 -0.002,0.01172 0.0156,0.0098 -0.002,0.0078 0.11718,0.01953 0.008,-0.0098 -0.002,-0.0098 -0.0332,-0.01172 -0.01,-0.01953 0.0273,-0.01172 -0.0156,-0.0059 0.01,-0.01172 0.0352,-0.0078 0.084,0.0332 0.041,0.0098 0.008,0.01172 -0.008,0.0078 0.0156,0.0039 -0.006,0.0078 0.0195,0.02344 -0.0273,0.0078 0.0527,0.01172 0.0273,0.0039 0.0527,-0.0059 0.01,0.0059 -0.0371,0.0039 -0.004,0.0039 0.0742,0.01172 0.0703,0.01758 0.0293,0.01172 0.043,0.03125 0.0488,0.01953 0.0273,0.002 -0.0254,0.01953 -0.043,0.02148 0.0156,0.0059 0.14648,0.01367 0.0391,0.0059 0.006,0.0098 0.0645,0.0293 0.0176,0.01172 -0.0176,0.03125 -0.002,0.01172 0.0117,0.0078 0.10547,-0.0098 0.0234,0.0039 0.008,0.0078 -0.0488,0.04102 0.01,0.0078 0.0234,0.0059 0.31055,-0.0039 0.0801,0.0098 0.0254,0.0078 0.0156,0.01367 0.0508,0.01367 0.0176,0.03125 0.006,0.0293 -0.01,0.0059 -0.0762,0.01563 0.002,0.0059 0.0664,-0.0059 0.043,0.002 0.041,0.0039 0.0371,-0.0039 0.0566,0.0039 h 0.0684 l 0.0137,0.01953 0.0508,0.03711 -0.002,0.0098 0.0156,0.01172 -0.006,0.01758 -0.043,-0.002 -0.0117,0.0039 -0.0899,-0.0039 -0.0332,0.0078 -0.0234,-0.0039 -0.0195,0.002 -0.0293,0.0078 -0.0137,0.0098 -0.004,0.01172 0.004,0.01758 0.0117,-0.002 0.0762,0.01758 0.19336,0.03125 0.0176,0.0059 0.0117,0.01953 0.13281,0.0039 0.0176,0.0059 v 0.0078 l -0.0215,0.01563 0.004,0.0078 0.0723,0.04492 0.008,0.04102 0.008,0.0039 0.0605,0.002 0.0449,0.01172 0.0195,0.01172 -0.004,0.0098 -0.0566,0.002 0.0234,0.01172 0.0625,0.02344 h 0.01 l 0.004,-0.0039 -0.0215,-0.01758 0.0195,-0.0039 0.0195,0.0059 0.0293,0.002 -0.01,-0.01172 0.008,-0.0059 0.0293,-0.0098 0.0605,-0.01172 0.10156,-0.0098 h 0.12305 l 0.12891,-0.002 0.0332,-0.0078 0.004,-0.0059 0.0215,-0.0039 0.0195,0.01367 0.0332,0.0078 0.004,0.0039 -0.0176,0.0098 -0.004,0.01563 0.0117,0.0059 0.0273,-0.0039 0.0176,0.0039 0.0254,0.01172 0.0449,0.0293 -0.002,0.0059 -0.043,0.0059 -0.004,0.0078 0.0195,0.0098 0.0117,0.01172 0.0234,0.03906 -0.006,0.01953 0.0137,0.0098 h 0.0156 l 0.0176,-0.01563 -0.0215,-0.0332 0.0195,-0.0039 0.043,0.002 0.008,-0.0039 -0.004,-0.0039 -0.0312,-0.0078 -0.008,-0.0078 -0.004,-0.02344 0.006,-0.0078 0.0605,-0.02148 0.0352,-0.02539 0.002,-0.04297 0.006,-0.0078 0.0156,-0.002 0.0254,0.002 0.041,0.0059 0.0117,0.0078 -0.0293,0.08008 -0.004,0.03125 -0.0312,0.02344 0.008,0.02539 -0.0156,0.01367 0.0137,0.02344 0.0156,-0.0039 0.0664,-0.0332 0.01,-0.01367 -0.002,-0.01367 0.0117,-0.0078 0.0176,-0.0039 0.0703,-0.0059 0.0586,0.0039 0.0273,-0.03906 0.0508,-0.02148 0.0469,-0.01172 0.0566,-0.0098 0.0645,0.0039 0.0801,-0.0078 0.12109,0.01563 0.0371,0.0098 0.01,0.01367 0.0469,0.03125 -0.006,0.01953 0.0352,0.01758 0.004,0.01563 -0.008,0.01367 0.0312,0.0098 0.0215,0.02148 0.0254,0.0078 0.0215,0.03125 0.0449,0.0293 0.0352,0.0098 0.11719,0.01172 0.0234,0.0059 0.0449,0.05469 0.0137,0.03516 0.2207,0.02148 0.0879,0.0039 0.0645,-0.0039 0.0176,0.0078 -0.002,0.02148 0.01,0.0078 h 0.0215 l 0.0254,-0.0039 0.0449,-0.01758 0.0469,-0.0293 0.0156,-0.0039 0.0605,0.002 -0.006,-0.01172 -0.0625,-0.02148 -0.0234,-0.01758 h -0.0332 l -0.0195,-0.0059 0.004,-0.01563 -0.0117,-0.0059 -0.0625,-0.01172 0.008,-0.0039 -0.006,-0.0039 -0.041,-0.01367 -0.01,-0.0078 0.006,-0.0059 0.0371,-0.01758 0.0176,-0.002 0.0176,0.0039 h 0.0625 l 0.084,0.0098 0.0254,0.0059 0.0254,0.01758 0.0234,0.0059 0.082,0.0098 -0.002,0.0039 0.0117,0.0039 0.0801,0.0039 0.0488,-0.02734 0.0391,-0.01367 0.0508,-0.0098 0.0801,-0.002 0.13867,0.0039 0.0449,0.0039 0.0449,0.0098 0.0469,0.02148 0.0899,0.0078 0.0645,0.02148 0.0898,0.0098 0.0215,0.0078 0.0723,0.0039 0.084,-0.002 0.0508,-0.0078 0.0273,-0.002 0.0527,0.0078 0.0781,-0.01563 0.11524,0.0098 0.11328,0.0039 0.0312,0.0039 0.0586,0.01563 0.0762,0.02734 0.0566,0.0098 0.0859,0.02734 0.13672,0.01367 0.0645,0.01367 0.0137,0.01367 0.12696,-0.01172 0.16015,-0.05273 0.0449,-0.01172 0.0781,-0.01172 0.0586,-0.0039 0.1211,-0.0059 h 0.11523 l 0.0391,0.002 0.0625,0.0098 0.0625,0.0039 0.0664,0.0098 0.0391,0.0098 0.006,0.0059 -0.0156,0.01172 0.01,0.0059 0.0254,0.0039 0.006,0.01172 0.0371,0.01172 0.01,0.0098 -0.01,0.0078 -0.0293,0.002 -0.0527,-0.0059 -0.14062,-0.002 -0.0254,-0.0059 -0.0332,-0.01172 -0.0254,0.002 -0.0254,0.01367 -0.0273,0.0039 -0.13672,-0.0059 0.0215,0.0078 0.0527,0.03125 0.0234,0.002 v 0.01563 l 0.0566,0.0078 0.0605,0.01758 0.0879,-0.0078 0.0215,0.002 h 0.0273 l 0.0234,0.002 0.01,0.0078 0.0684,-0.01367 0.0508,0.02344 h 0.0176 l 0.0879,-0.0078 0.0645,-0.01367 0.15429,-0.0098 0.12891,0.002 0.0547,0.0059 0.0351,0.0098 h 0.0176 l 0.006,-0.01758 0.0176,-0.0039 0.0273,0.0059 0.043,-0.002 0.0215,0.0078 0.0293,0.0039 0.0547,0.01563 0.0469,-0.0059 0.0566,0.0059 0.0527,0.01563 0.0156,0.0098 0.0488,0.03906 0.0488,0.01758 0.0274,0.02344 v 0.01563 l -0.0195,0.01953 0.002,0.01953 -0.01,0.0078 -0.0176,0.002 -0.0762,-0.0059 0.002,0.0098 0.0645,0.0098 0.004,0.0059 -0.0645,0.002 -0.004,0.0098 -0.0176,0.0059 0.0156,0.0098 0.0977,0.02148 0.0391,0.01758 0.0312,0.03906 0.0215,0.01172 0.0684,0.01953 0.0176,0.0098 0.0215,0.02734 h 0.0156 l 0.0645,0.01953 0.0664,0.02344 0.0312,0.0039 0.0937,-0.0039 0.15235,0.01758 0.0586,0.01172 0.0488,0.002 0.0312,0.0059 0.0293,0.01367 0.082,0.002 0.0625,0.0098 0.0117,0.0078 -0.0176,0.0098 0.004,0.0039 0.0801,0.01953 0.0371,0.01758 0.006,0.0098 -0.0234,0.01563 v 0.0039 l 0.0293,0.01172 0.0352,0.0039 0.0801,-0.002 0.0273,0.0059 0.0117,0.01367 0.0488,0.0039 0.0742,-0.01172 0.0332,0.0078 0.0195,0.01953 -0.0273,0.0293 0.002,0.01172 0.008,0.0059 h 0.0176 l 0.043,-0.0098 0.0234,-0.002 0.0195,0.0039 0.0234,0.01953 0.006,0.04883 0.0586,0.01367 0.0508,-0.0039 0.0293,0.002 0.0723,-0.0098 0.0332,-0.0078 h 0.0527 l 0.043,-0.002 0.0176,0.0039 0.002,0.01172 0.0234,0.01758 -0.006,0.01367 0.0117,0.0059 0.0449,0.0059 0.0176,0.01367 0.0371,0.0098 0.0234,-0.002 0.008,-0.01367 0.0137,-0.002 0.0176,0.0039 0.006,0.01172 0.0234,0.01563 0.041,0.0078 0.0254,0.0098 0.008,0.02344 0.0332,0.01172 0.0488,0.0098 0.0234,0.01563 h 0.0215 l 0.0625,-0.01172 0.0176,-0.01953 -0.004,-0.0059 -0.0273,-0.0078 -0.0254,-0.01367 0.0762,-0.07227 -0.004,-0.0078 0.0195,-0.0098 0.0137,-0.01758 -0.006,-0.02148 -0.0508,-0.0332 -0.0352,-0.05469 -0.0195,-0.01172 0.0137,-0.01172 -0.0117,-0.02539 -0.0449,-0.04102 0.002,-0.0078 0.01,-0.002 0.0918,0.02344 0.0859,0.04297 0.0312,0.01953 0.0137,0.01953 0.0137,0.0078 0.0351,0.0098 0.008,0.0059 -0.0195,0.0059 -0.002,0.0059 0.0254,0.02734 -0.006,0.02734 0.0234,0.02539 0.0469,0.03125 0.0976,0.04687 0.0274,0.02539 0.0332,0.01953 0.0273,0.04102 0.002,0.02148 -0.0234,0.01367 0.041,0.0039 0.0566,0.04297 0.0527,0.0293 0.0137,0.01758 0.0332,0.0098 0.006,0.01367 0.01,0.002 0.0352,-0.0039 0.0195,0.0059 -0.0234,0.0078 -0.002,0.01367 -0.0352,0.01172 -0.0332,0.02148 -0.0234,0.01758 -0.13477,0.03906 -0.043,0.01758 -0.0684,0.01367 -0.0332,0.002 -0.084,-0.0039 0.0332,0.01367 -0.01,0.0059 -0.0195,0.0039 -0.0176,-0.002 -0.0371,-0.01367 -0.0156,0.002 0.0293,0.01758 -0.0117,0.01172 -0.0215,0.002 -0.0332,-0.01172 -0.0156,-0.002 0.01,0.01172 -0.01,0.0098 -0.0527,-0.002 -0.0351,-0.0078 -0.0371,-0.0293 -0.0195,-0.002 -0.0274,0.0059 -0.0625,0.05859 -0.0176,0.0059 -0.0488,-0.0039 -0.0488,-0.0098 -0.008,0.0059 0.0117,0.01367 -0.004,0.01172 0.008,0.01172 0.0371,0.01758 -0.0469,0.0332 0.006,0.02148 -0.01,0.0098 -0.0293,0.0098 -0.0156,0.002 0.008,0.0078 -0.006,0.0059 -0.0312,0.0039 -0.004,0.01758 -0.0898,0.0078 -0.0293,-0.0078 -0.0137,0.0078 0.002,0.0098 0.0625,0.01367 v 0.01367 l 0.125,0.02734 0.0234,0.0078 -0.0137,0.02148 -0.0137,0.0059 -0.0586,0.01172 -0.0156,0.01758 -0.0586,0.03125 0.0156,0.002 0.0293,-0.0059 h 0.0215 l 0.0625,0.01172 0.0137,-0.002 0.0391,-0.01563 0.0391,-0.0059 -0.006,-0.01367 0.0273,-0.0098 0.0117,-0.01172 0.0332,-0.0059 0.0137,-0.01172 0.0215,-0.0059 0.0293,-0.0039 0.0469,-0.002 0.0215,0.0039 0.0137,0.0078 -0.002,0.01563 0.041,0.101562 -0.0352,0.03906 0.004,0.02148 -0.0195,0.04297 0.0234,0.03516 -0.008,0.01367 -0.041,0.01758 -0.043,0.0078 -0.0488,0.0039 -0.0801,-0.01758 -0.0332,-0.002 -0.0332,0.002 -0.008,0.01172 h 0.0371 l 0.0137,0.0039 -0.0176,0.0098 0.0254,0.0078 0.043,0.002 0.0273,0.0078 0.0312,0.03906 -0.008,0.0059 -0.0254,0.0059 h -0.0762 l -0.15625,-0.01758 -0.0293,0.002 0.041,0.01758 0.006,0.01172 -0.0176,0.02734 -0.0391,0.03906 -0.0371,0.02344 -0.0156,0.0293 -0.0391,0.04102 -0.043,0.01563 -0.0195,0.04102 -0.0586,0.04687 -0.004,0.05664 0.0156,0.0293 -0.004,0.0098 -0.0254,0.0078 -0.11719,0.01172 -0.11524,0.02734 h -0.0254 l -0.0234,-0.0039 0.004,-0.01563 -0.0137,-0.0039 -0.0195,0.002 -0.0332,0.0098 -0.0762,0.002 -0.0391,0.0078 -0.01,0.0059 0.006,0.0059 0.0449,0.01172 -0.008,0.0078 -0.10351,0.01758 -0.0215,-0.002 -0.0312,0.0039 -0.0117,0.0059 0.01,0.0059 -0.0176,0.01758 0.006,0.0078 0.0234,0.0078 0.0195,-0.002 -0.004,-0.0078 0.008,-0.0039 h 0.0391 l 0.0352,-0.0078 0.0176,0.0039 0.0195,0.0078 0.01,0.07422 -0.0195,0.0078 h -0.0273 l -0.0488,-0.01172 -0.12305,0.0039 -0.004,0.002 0.043,0.01367 -0.004,0.0098 -0.0293,0.01172 -0.004,0.0059 0.0664,-0.002 0.0273,0.0078 0.0293,0.01758 -0.0195,0.01563 -0.0801,0.01758 -0.0137,0.0059 0.0156,0.01367 0.0625,0.02539 0.0137,0.0098 -0.0312,0.01563 -0.10352,0.0293 -0.0273,0.0059 -0.0508,0.0039 -0.0488,-0.0078 -0.125,-0.06055 -0.0234,-0.0039 -0.043,0.0039 -0.0156,0.0059 0.01,0.01758 -0.0449,0.07617 -0.0156,0.01367 -0.0859,0.02344 0.0234,0.02344 -0.0137,0.0059 -0.0684,0.0039 -0.14843,-0.0098 -0.23438,-0.04297 -0.0312,-0.01562 0.0293,-0.01953 v -0.0078 l 0.0449,-0.01953 0.004,-0.0059 -0.0176,-0.01563 0.0137,-0.02344 -0.006,-0.01172 -0.0332,-0.01758 -0.0371,-0.0059 -0.0234,0.002 0.0137,0.08203 -0.0117,0.01172 -0.0391,0.01172 -0.0527,0.0059 -0.0918,-0.01563 -0.0371,-0.002 -0.0391,0.0039 -0.0293,0.0078 -0.002,0.002 -0.11914,0.01367 -0.0293,-0.002 -0.0332,0.0059 -0.0645,0.002 -0.0391,-0.0078 -0.0586,0.01172 -0.10742,0.0078 0.043,0.02148 0.0254,0.02344 -0.002,0.01563 -0.01,0.0039 -0.0312,0.002 -0.0899,-0.01367 -0.13867,-0.0098 -0.0156,-0.0039 -0.041,0.0059 0.0469,0.0098 -0.0117,0.01953 -0.0176,0.0039 -0.043,-0.0039 -0.11328,-0.01953 -0.002,-0.0039 -0.043,-0.0039 -0.01,0.0039 0.008,0.0059 0.16407,0.03906 0.01,0.0078 -0.0137,0.01367 -0.0273,0.0078 v 0.0059 l -0.0273,0.0039 -0.0781,-0.0059 -0.043,-0.0098 -0.0312,-0.01172 -0.0644,-0.01172 -0.0117,-0.0039 0.002,-0.01367 -0.0527,-0.01758 -0.11914,0.0059 0.0254,0.01758 -0.002,0.01367 0.0723,0.0059 0.0215,0.0098 0.0625,0.01172 0.004,0.0039 -0.0332,0.01758 0.006,0.0078 0.0527,0.01758 0.004,0.0059 -0.0195,0.0059 -0.10938,0.01563 -0.11914,0.03906 -0.0918,0.01563 -0.0723,0.0039 -0.0625,0.01563 -0.0234,-0.002 -0.0254,0.0059 -0.0176,0.01758 -0.043,0.0059 -0.0703,-0.0039 -0.0644,0.0039 -0.01,0.0078 -0.0273,0.0059 -0.11719,0.0039 0.0801,0.02539 0.0801,0.01758 0.01,0.0078 -0.0137,0.0078 -0.0703,0.0039 H 344.5 l -0.043,-0.0078 -0.0703,-0.02344 -0.0254,0.01563 -0.0254,0.0059 -0.0527,0.0078 -0.0234,0.01172 -0.0332,0.0059 0.11719,0.0098 0.0879,0.01172 0.2168,0.01953 0.11914,0.02539 0.10156,0.01563 0.0254,0.0098 -0.002,0.0078 -0.0371,0.01953 -0.0312,0.0078 -0.0195,0.02344 0.0137,0.0078 0.0508,0.01172 -0.002,0.0039 -0.0449,0.0078 -0.1211,0.0059 -0.1289,-0.0059 -0.12891,-0.01367 -0.0801,-0.002 -0.25586,-0.05273 -0.0684,-0.0078 -0.13476,0.01172 -0.0254,0.0078 -0.0352,0.01953 -0.0898,0.0098 -0.043,0.0098 0.0215,0.03711 -0.006,0.0059 0.01,0.01367 -0.004,0.02148 -0.0176,0.01953 -0.0156,0.0039 -0.002,0.01172 -0.0312,0.0098 -0.0234,-0.002 -0.0176,-0.0059 -0.0879,-0.07617 -0.0508,-0.02734 -0.0293,0.01563 -0.0195,0.0039 -0.041,0.002 -0.0117,0.0039 0.0215,0.01563 -0.008,0.02734 0.0645,0.03711 -0.0137,0.01367 0.0195,0.03516 0.0371,0.01758 0.0215,-0.002 0.0274,-0.0078 0.0234,-0.002 0.0313,0.0059 0.0273,0.01563 -0.004,0.0078 -0.0547,0.01367 -0.0156,0.01172 0.004,0.0098 0.0234,0.0059 0.0508,0.002 0.0254,0.0098 0.0449,0.0098 -0.0117,0.01563 0.0215,0.01367 -0.002,0.01563 0.0176,0.02344 0.0547,0.02734 0.041,0.03125 0.0801,0.01172 0.0312,0.0078 0.0527,0.0078 0.043,0.01563 -0.002,0.02539 -0.0391,0.04297 -0.002,0.01563 0.0176,0.02734 -0.0117,0.01758 -0.0293,0.0098 -0.0195,0.002 -0.0215,-0.0059 -0.0879,-0.07617 -0.0117,-0.0039 h -0.0469 l -0.0215,-0.0059 -0.0117,-0.0293 -0.0234,-0.002 -0.043,0.0039 -0.0547,-0.002 -0.0332,0.0039 0.01,0.01172 -0.0117,0.01367 -0.0527,-0.002 -0.0293,0.0059 -0.0254,0.01172 -0.0352,0.0078 -0.0488,0.002 -0.0371,-0.0039 -0.041,-0.01953 -0.0351,-0.0059 h -0.11914 l -0.0469,-0.01172 -0.0195,0.002 -0.01,0.01563 h -0.0176 l -0.041,-0.0098 -0.0352,-0.01758 -0.0391,-0.0039 h -0.0703 l -0.0176,0.01367 -0.006,0.01172 -0.004,0.02148 -0.0605,0.03711 -0.004,0.01367 -0.0156,0.0059 -0.13672,0.0059 -0.0254,0.0059 -0.006,0.04883 0.0195,0.0078 0.01,-0.0059 h 0.0293 l 0.0195,0.0039 0.0137,0.02344 -0.0351,0.0293 -0.10352,0.03125 0.0215,0.0098 0.008,0.01367 -0.008,0.02539 -0.002,0.01563 -0.0586,0.02148 -0.0176,0.01758 -0.0312,0.01172 -0.0312,0.0039 -0.01,-0.0098 0.0176,-0.002 0.0176,-0.01172 -0.002,-0.01172 0.0254,-0.01758 0.004,-0.01367 -0.0371,-0.0059 -0.0312,-0.002 -0.0352,0.002 -0.0391,-0.0039 -0.0254,-0.01172 -0.0527,-0.03711 0.004,-0.01953 -0.0254,-0.02734 0.0293,-0.01563 0.0781,-0.02148 0.0254,-0.01563 0.0508,-0.01367 0.0391,-0.02344 0.0957,-0.03516 0.004,-0.0059 -0.01,-0.0039 -0.0254,0.002 -0.0469,0.01367 -0.0469,0.0059 -0.0566,0.0039 -0.0762,0.01172 -0.0117,-0.0039 0.0156,-0.02148 -0.008,-0.002 h -0.0234 l -0.0312,0.01367 -0.0215,0.002 -0.0215,-0.002 -0.004,-0.0039 0.0273,-0.01758 -0.0156,-0.04297 0.0351,-0.002 0.01,-0.0059 -0.004,-0.0059 -0.0332,-0.0078 -0.01,-0.01172 -0.0391,-0.01953 -0.0566,-0.01758 -0.0449,-0.0078 -0.0508,0.0039 -0.0566,0.0098 -0.0742,0.02148 -0.0391,0.01563 -0.0137,0.0078 -0.002,0.01172 -0.0469,0.0332 -0.004,0.01758 -0.0703,0.0059 -0.006,0.0059 0.004,0.0059 0.0645,0.01563 0.0332,0.01563 0.041,0.04102 -0.0137,0.0059 h -0.0176 l -0.0781,-0.0078 -0.043,-0.002 -0.0273,0.0039 -0.0547,0.01758 h -0.0234 l -0.0273,-0.0059 -0.0566,-0.0078 -0.10352,-0.0059 -0.0195,0.002 -0.041,0.03516 0.0293,0.0039 0.0606,-0.0078 0.0215,0.0039 -0.0117,0.01953 0.0254,0.0098 v 0.0059 l -0.0215,0.002 -0.13086,-0.01367 -0.084,0.002 -0.0254,0.0078 0.0234,0.01953 0.0508,0.01172 0.0742,0.02734 0.10938,0.0625 0.004,0.01953 -0.0156,0.002 -0.0156,-0.0039 -0.13671,-0.07422 -0.0859,-0.01367 -0.0312,0.02148 0.0703,0.01758 0.0937,0.03906 0.084,0.02539 0.0195,0.01172 -0.006,0.0078 -0.0117,0.002 -0.043,-0.0078 -0.0625,-0.01953 -0.17773,-0.03125 -0.0312,-0.0078 -0.0449,0.02344 -0.0391,0.01172 0.0117,0.0039 -0.01,0.0078 -0.006,0.01172 v 0.01563 l 0.0176,0.0059 0.0332,0.0039 0.12304,-0.002 0.0234,0.0039 0.11133,0.0332 0.0195,0.0098 -0.006,0.0098 -0.0156,0.0078 -0.008,0.0078 -0.0312,0.0098 -0.0801,0.0098 -0.004,0.0059 0.0351,0.0078 0.006,0.0078 -0.043,0.0293 -0.0274,0.0059 -0.10351,0.0039 -0.0312,0.0039 -0.0176,0.0078 -0.004,0.01172 0.008,0.0059 0.0234,0.0039 0.084,0.0059 0.0351,0.0039 0.0176,0.0078 0.006,0.01367 -0.0137,0.01367 0.0117,0.01758 -0.0195,0.01758 0.18554,0.0078 0.25,0.002 0.15235,0.0078 0.10546,0.01367 0.043,-0.002 0.0527,-0.0078 0.0723,-0.002 0.13086,0.002 0.0273,0.0078 0.0918,0.002 0.0527,0.0098 0.10742,0.002 0.0664,-0.0078 0.0293,-0.01758 0.0176,-0.002 h 0.0879 l 0.0234,-0.002 0.0606,-0.01563 0.0547,-0.0078 0.0332,0.002 0.0195,0.0059 v 0.0098 l -0.0625,0.03906 0.002,0.0078 0.0234,0.0078 0.0605,0.0098 0.0332,0.01172 0.0723,0.03125 0.0137,0.02539 -0.0254,0.01563 -0.0566,0.01758 0.002,0.0078 0.0293,0.0059 0.10157,-0.002 0.0391,-0.0039 0.0996,-0.01953 h 0.041 l 0.0312,0.0039 0.041,0.0098 0.004,0.02539 -0.0195,0.01953 0.004,0.0098 -0.0273,0.04687 -0.002,0.03711 -0.0215,0.0078 -0.0215,0.002 -0.0606,-0.002 -0.1875,-0.01563 -0.0156,-0.002 -0.23242,-0.01172 -0.19336,-0.0039 -0.043,-0.0059 -0.19726,-0.0078 -0.3125,-0.01953 -0.24414,-0.0059 -0.37891,-0.0293 -0.0273,0.002 -0.0137,0.01758 0.17187,0.0957 -0.0117,0.0078 h -0.0215 l -0.14063,0.01172 -0.0508,0.0098 -0.0625,0.03516 -0.0215,0.03711 -0.0449,0.02344 0.0351,0.0078 0.0332,0.0039 0.0879,0.0059 0.0371,0.0078 0.0313,0.0039 0.0254,0.0098 0.0742,0.0098 h 0.0488 l 0.0547,0.0078 0.041,0.0059 0.01,0.0098 -0.0312,0.01758 -0.0254,0.0039 -0.0488,0.002 -0.0254,-0.002 h -0.043 l -0.0801,0.0098 0.0332,0.02148 0.008,0.03516 -0.10937,0.05859 0.125,0.02148 0.16796,0.0098 0.0332,0.0059 -0.0137,0.01172 -0.0547,0.0039 -0.0899,0.002 -0.084,-0.0039 -0.043,-0.0039 -0.10547,-0.002 -0.008,0.01367 0.0371,0.04297 -0.0391,0.01172 0.041,0.03516 0.008,0.0332 -0.008,0.01563 -0.0332,0.0059 -0.14649,-0.002 0.0469,0.02539 -0.0215,0.0059 h -0.0508 l -0.11523,-0.02148 -0.0332,-0.002 -0.0234,0.002 -0.0117,0.01172 0.11719,0.03125 0.0293,0.01758 0.0195,0.06445 0.0371,0.0098 0.0762,0.0098 0.0645,0.002 0.0937,-0.0059 0.0195,0.0039 -0.0234,0.01758 0.006,0.0332 -0.0547,0.04102 -0.008,0.01563 0.008,0.0078 0.0605,0.01563 0.002,0.01953 0.0937,0.03711 -0.0137,0.04492 -0.0117,0.0098 -0.11915,0.04297 -0.0176,0.02148 0.14453,0.0078 0.0195,0.0059 -0.004,0.01367 -0.0391,0.0098 -0.12305,0.0078 -0.0351,0.0059 0.0195,0.01953 -0.041,0.02148 -0.0293,0.0039 0.11132,0.01172 0.0957,0.01367 0.0586,0.01367 0.041,0.02344 0.0449,0.0098 -0.0332,0.02148 0.006,0.04492 -0.0176,0.03125 -0.0586,0.01953 -0.0273,0.0059 -0.0352,-0.002 -0.11328,-0.01758 -0.0703,-0.0039 -0.002,0.01367 -0.0606,0.03516 -0.008,0.01172 -0.0254,0.0098 0.0293,0.01953 -0.006,0.01758 -0.0644,0.01367 -0.1875,0.01172 0.043,0.0078 h 0.0449 l 0.041,0.0039 0.0508,0.0098 -0.004,0.0078 -0.0156,0.0059 -0.0391,-0.002 -0.0625,0.0059 0.0274,0.01367 -0.0156,0.01563 0.0156,0.0039 0.084,0.002 0.17383,-0.02344 h 0.0312 l 0.17188,0.01172 0.0371,0.0078 0.0312,0.002 0.0801,-0.0059 0.0293,0.002 0.12695,0.01758 -0.002,0.01172 -0.0352,0.02344 0.0137,0.01953 0.0664,0.02344 0.0274,0.02539 0.1289,0.05273 0.0352,0.03516 0.10937,0.05469 0.0781,0.02734 -0.043,0.01367 0.008,0.0098 -0.0117,0.02344 0.0156,0.01367 0.0391,0.0059 0.084,0.0039 0.0332,-0.0078 0.01,0.01172 0.0332,0.0078 0.0801,0.01563 -0.043,0.01758 h 0.0586 l -0.0352,0.0098 -0.0508,0.0098 0.002,0.0078 0.0684,0.01758 0.006,0.0078 -0.0176,0.0078 0.0215,0.0078 -0.008,0.0098 -0.12695,0.03711 -0.043,0.0039 h -0.0527 l -0.11914,0.01367 0.0117,0.01367 0.0703,0.0039 0.0937,0.02539 0.0293,0.01367 -0.0195,0.02148 -0.043,0.01172 h -0.0371 l -0.10352,0.0098 -0.0273,0.0059 0.0469,0.02148 0.0156,0.002 0.0117,0.0098 0.0234,0.0039 0.0664,0.0039 0.16211,-0.002 0.0937,-0.0098 0.0547,-0.01367 0.2168,-0.02539 0.12695,0.002 0.10547,0.01758 0.0312,0.01367 -0.0312,0.02344 0.006,0.0039 0.10937,0.01172 0.0273,0.01758 -0.0254,0.01953 -0.008,0.02148 -0.0156,0.0078 0.0508,0.03125 -0.0156,0.0078 0.0234,0.04102 -0.002,0.02148 0.0156,0.0098 -0.006,0.02148 0.0195,0.01172 -0.002,0.0059 -0.0566,0.0078 -0.0156,0.0098 0.0215,0.02539 -0.0351,0.0293 -0.0391,0.01172 -0.0664,0.0098 0.0293,0.01953 0.002,0.01367 -0.0293,0.02148 -0.14453,0.02344 -0.0312,0.01172 -0.0254,0.01953 -0.25391,0.03516 -0.0684,0.01367 -0.0117,0.0059 -0.10156,0.0098 -0.21094,0.0098 -0.0801,0.01563 -0.043,0.02734 v 0.01563 l 0.0195,0.0059 h 0.0351 l 0.0293,-0.0078 0.0469,-0.0039 0.0449,0.01563 0.0176,0.0039 0.002,0.0078 -0.0234,0.0059 0.0332,0.02539 0.0625,0.01172 0.008,-0.002 h 0.0664 l 0.0547,0.002 0.0332,0.02539 h 0.0371 l 0.0625,-0.01172 0.0137,-0.0078 0.10742,-0.01953 0.10742,-0.01367 0.12305,-0.02148 0.0527,-0.0078 0.0566,0.0039 0.0723,0.0078 0.0488,0.01563 0.0566,-0.002 0.0371,0.01563 0.0215,0.0039 0.0508,-0.0059 0.0391,-0.02539 h 0.0293 l 0.0176,0.002 0.0488,-0.02148 0.0293,-0.0059 0.15625,-0.0098 0.10938,-0.02344 0.0137,-0.02148 0.0703,-0.03125 -0.041,-0.01758 -0.008,-0.01367 0.0117,-0.01172 0.0312,-0.01953 0.0996,-0.04102 0.0312,-0.03125 0.0566,-0.0293 0.0273,-0.0098 0.0391,-0.0059 0.11133,0.03125 0.0234,0.01172 0.0215,0.0332 -0.0117,0.03711 -0.0234,0.01172 -0.17773,0.05273 -0.0527,0.0098 0.0195,0.01367 0.041,0.01367 0.28125,0.04883 0.041,0.01563 0.0137,0.01367 0.0176,0.0098 -0.006,0.01758 -0.0527,0.03125 -0.0137,0.01953 0.0703,0.0332 0.0801,0.02539 0.043,0.0059 0.0898,0.0098 0.14844,0.0098 0.25781,0.01367 0.11719,0.01758 h 0.0195 l 0.16602,0.0059 0.13672,0.002 0.0703,-0.0039 h 0.0918 l 0.0762,0.0078 0.0352,0.0078 0.0312,0.01758 0.084,0.04297 0.0234,0.01953 0.0234,0.04492 -0.0156,0.0078 0.0137,0.0098 -0.0137,0.0078 -0.084,0.01758 -0.0879,0.0078 h -0.10937 l -0.0352,-0.0059 -0.0137,-0.0059 0.0117,-0.0098 0.084,-0.01758 -0.01,-0.01758 -0.0371,-0.02148 -0.0703,-0.01758 -0.12305,-0.01172 -0.27148,-0.03125 -0.13282,-0.01172 -0.13086,-0.0059 -0.13281,0.002 -0.0508,0.01172 h -0.16016 l -0.14453,0.0078 -0.0801,0.02148 -0.0293,0.01563 -0.0547,0.0098 -0.11523,-0.0059 h -0.10743 l -0.14453,0.0098 -0.0723,-0.0039 -0.10352,-0.002 -0.082,-0.0039 -0.11133,-0.01758 -0.0527,0.002 -0.0312,0.0059 v 0.0059 h -0.0215 l -0.0312,-0.0039 h -0.0605 l -0.0781,0.002 -0.0742,-0.0039 -0.10547,-0.002 -0.14648,0.0098 -0.0664,0.0078 -0.043,0.01563 -0.006,0.0098 0.0156,0.01172 -0.125,0.01172 -0.0273,0.0098 0.008,0.01367 0.0488,0.01563 -0.0273,0.0098 -0.043,0.0078 -0.14453,0.0078 -0.0898,-0.0078 -0.12109,-0.0039 -0.16602,0.0059 -0.0723,0.0078 -0.0996,0.0293 -0.004,0.03125 -0.0391,0.0059 h -0.0254 l -0.0859,0.0059 -0.084,0.01367 -0.10351,0.02539 -0.0723,-0.002 -0.1289,0.0059 0.002,0.0098 0.041,0.0098 -0.0274,0.01367 0.0195,0.0078 0.0742,0.01172 0.002,0.0039 -0.0879,0.01367 -0.0234,0.03711 -0.006,0.08203 -0.0742,0.0332 -0.043,0.0098 -0.13477,0.0078 -0.2539,0.0039 h -0.12305 l -0.24805,-0.01758 -0.30078,0.002 -0.20312,-0.0078 -0.17578,-0.002 -0.0527,0.0059 h -0.0898 l -0.0234,0.002 -0.0391,0.0078 0.0156,0.002 -0.0332,0.01563 -0.10742,0.02539 -0.13672,0.02148 -0.0547,0.01172 -0.0723,0.02734 -0.10547,0.01758 -0.0879,0.0078 0.084,0.05078 h 0.0527 l 0.0215,0.0039 h 0.0293 l 0.0371,0.0078 0.0156,0.01172 -0.0176,0.02344 0.002,0.0293 -0.0371,0.01563 -0.15235,0.03125 -0.0605,0.01953 -0.002,0.0078 0.0996,0.01758 0.006,0.0293 -0.0234,0.0039 -0.10156,0.002 -0.0371,0.002 0.0293,0.01953 0.0664,0.02539 -0.002,0.01758 -0.0742,0.01758 -0.13086,0.0078 -0.002,0.0039 -0.0547,0.0098 0.006,0.02148 0.0605,0.0293 0.0195,0.02344 -0.0273,0.02539 -0.0781,0.03125 0.1543,0.04492 0.0762,0.03906 -0.0156,0.05273 -0.0527,0.0625 0.1211,0.02734 0.0273,0.02734 -0.0137,0.01563 0.0215,0.0059 h 0.0352 l 0.0391,0.0078 -0.0176,0.0059 -0.16992,0.02148 -0.004,0.01953 0.041,0.0293 -0.008,0.01367 -0.0371,0.0098 -0.0391,0.0059 -0.0742,-0.002 -0.0293,0.002 -0.0371,0.01172 0.008,0.002 -0.0352,0.04883 0.0391,0.02539 0.26367,0.08984 0.0879,0.03906 0.0859,0.04492 0.0254,0.03711 0.18164,0.05273 0.0195,0.0332 0.0859,0.04102 -0.0195,0.01367 -0.043,0.0098 -0.0742,-0.002 -0.25,0.0059 0.0176,0.0098 -0.0156,0.01367 -0.0312,0.0098 -0.0781,0.0078 -0.25586,0.01367 -0.10547,0.02539 -0.12109,0.01758 -0.13477,0.01563 0.0703,0.01563 0.25196,0.02539 0.0918,0.0039 0.0762,-0.0059 0.0527,-0.0078 0.0234,-0.0078 0.2207,-0.03125 0.17773,-0.01367 h 0.0801 l 0.0527,0.0078 0.0371,0.01953 0.13476,0.0039 0.0352,0.0098 v 0.01172 l -0.0625,0.02734 -0.0723,0.01563 -0.0859,0.01172 -0.12305,-0.0039 -0.0352,0.0039 -0.0371,0.04687 -0.0605,0.01953 -0.0625,0.01172 -0.15625,0.0059 -0.0957,0.01367 -0.10351,0.03125 0.0117,0.01563 0.0957,0.01953 0.14648,-0.002 0.0391,0.0039 -0.0488,0.01563 0.0137,0.0039 0.13281,-0.0039 0.10547,0.0039 0.0645,0.0059 0.0234,0.0098 -0.18554,0.02148 -0.0899,0.01367 -0.0508,0.01367 0.002,0.04687 0.0664,0.03906 0.19727,0.03516 -0.0176,0.01953 -0.1211,0.01172 -0.0176,0.0059 0.004,0.0059 0.0918,0.0293 0.0156,0.01172 -0.0625,0.01172 -0.0605,0.002 0.002,0.0098 0.082,0.01758 0.2168,-0.002 0.0547,0.0078 -0.0195,0.0098 -0.12304,0.01953 -0.13477,0.002 -0.0391,0.01953 -0.0117,0.07031 -0.0156,0.0059 0.0117,0.0059 0.17969,0.0059 0.12695,0.0078 0.0547,0.0078 0.0117,0.01172 -0.0469,0.01563 0.12304,0.0293 0.0527,0.0059 0.16015,-0.0059 h 0.11133 l 0.0488,0.01172 0.002,0.0059 -0.0605,0.01758 -0.0703,0.0098 -0.0215,0.0078 -0.16797,0.02344 -0.0566,0.0039 0.20508,0.04102 0.15234,0.0039 0.0449,0.0078 0.0137,0.0078 -0.0723,0.01367 -0.0137,0.0059 0.01,0.0078 0.0508,0.0078 0.2461,0.002 0.0723,0.0039 0.0547,0.0078 0.0293,0.01367 0.28906,0.03125 0.0996,0.01563 0.0977,0.0078 0.006,0.0059 -0.0352,0.0059 0.0625,0.02539 0.006,0.0098 -0.0488,0.06055 0.12305,0.05078 0.15039,-0.01172 0.13672,-0.0059 h 0.0586 l 0.0527,0.0059 0.0508,0.01172 0.0312,0.02734 -0.006,0.0098 -0.0547,0.01367 h 0.0195 l 0.01,0.0098 -0.0215,0.01172 0.008,0.0078 0.0488,0.01562 0.27344,0.0332 0.0527,0.01563 0.0137,0.02539 0.10156,0.0332 0.28711,0.05273 0.0898,0.03125 0.11719,0.0293 0.041,0.02344 -0.002,0.02148 -0.0293,0.0078 -0.002,0.0078 -0.0254,0.0098 -0.13086,0.02148 -0.10937,0.0059 h -0.2168 l -0.12891,-0.0078 -0.0742,-0.0078 0.004,-0.0059 -0.37695,0.0059 -0.29102,0.0098 -0.10547,0.01172 -0.26757,0.01563 -0.32227,0.01367 -0.19336,0.01172 -0.14258,0.01563 -0.12304,0.01953 0.0859,0.0078 0.0879,0.01758 0.13868,0.03906 0.0469,0.0059 0.10352,0.04687 -0.0137,0.0332 0.12696,-0.002 0.16406,-0.0078 0.19141,-0.0059 0.10742,0.002 h 0.0801 l 0.12304,0.0078 0.13282,0.01367 0.0918,0.02539 -0.0156,0.02344 0.0957,0.002 0.0547,0.0098 0.041,0.04102 0.0274,0.0078 0.15625,0.01563 0.13476,0.002 0.0156,-0.01758 -0.0176,-0.0059 h -0.0371 l -0.0469,-0.0059 -0.0254,-0.01758 0.0137,-0.0039 0.0762,-0.0078 0.10156,-0.0039 0.0918,-0.04102 -0.0547,-0.02539 -0.18359,-0.05859 0.043,-0.0098 0.125,-0.0078 0.58007,-0.0078 0.54883,-0.05273 0.11133,-0.0059 h 0.0937 l 0.0879,0.0059 0.21875,0.03125 0.16406,0.03125 0.19141,0.01563 0.0625,0.02148 -0.01,0.02148 -0.0898,0.03516 -0.44531,0.0918 -0.0352,0.01367 0.0312,0.0078 0.0898,0.01367 0.17383,0.01953 0.0742,0.002 0.0625,-0.0039 0.10742,-0.01758 0.0684,-0.0059 0.17774,-0.0078 0.0898,0.002 0.24219,0.01563 0.12109,0.0039 0.31641,0.03711 0.0273,0.02344 -0.0234,0.02734 0.0176,0.01367 0.0332,0.0059 -0.01,0.0059 0.0488,0.0078 0.16406,0.002 0.19336,0.0098 0.16211,0.01758 0.11914,0.01953 0.0723,0.01953 0.0312,0.02148 -0.0547,0.01367 h -0.12695 l -0.32227,-0.01367 -0.11719,-0.0039 -0.041,0.0059 v 0.01953 l 0.0664,0.01563 0.0391,0.002 0.01,0.0078 0.2207,0.0332 0.004,0.0039 0.4668,0.03125 0.084,-0.0039 0.16016,-0.0039 0.2832,0.0098 0.19727,0.01172 0.10547,0.0098 0.21093,0.02734 0.0781,0.0332 0.0605,0.04297 0.0449,0.0098 -0.008,0.0039 0.0547,0.02148 0.004,0.0098 -0.0391,0.01563 -0.0469,0.0078 -0.0977,0.0059 h -0.0996 l -0.22461,0.0098 0.002,0.01953 -0.0625,0.01172 0.082,0.0078 h 0.17578 l 0.0586,0.0039 -0.004,0.0078 -0.041,0.0078 -0.13672,0.01758 -0.10937,0.0039 -0.13086,-0.002 -0.14063,-0.0059 -0.0488,0.01758 0.0469,0.04297 -0.0976,0.04492 -0.0605,0.01563 -0.0234,0.01367 0.0176,0.02148 0.0234,0.01367 0.0859,0.01758 0.11914,0.01367 0.0938,0.0059 0.13281,0.002 0.0801,-0.0039 0.0566,-0.0078 0.17578,-0.05859 0.0566,-0.01367 0.0976,-0.01367 0.20899,-0.01758 0.37109,-0.01367 0.0703,0.0059 0.0566,0.03516 -0.0391,0.02344 0.004,0.02734 0.0859,-0.0039 0.0254,-0.0078 0.0332,-0.002 0.082,-0.01953 0.0215,-0.0293 0.0625,-0.0039 0.125,0.01953 0.14257,0.01172 0.0723,0.01172 0.11133,0.03516 0.13476,0.01953 0.17969,-0.002 0.21094,0.002 0.10547,0.01563 0.23633,0.01758 0.0566,-0.002 0.0625,-0.01367 0.0859,-0.0098 h 0.041 l 0.10742,0.0098 0.15234,0.02734 0.0547,-0.0039 0.11719,-0.002 0.13086,0.0039 0.11133,0.0098 0.17773,0.03516 0.0254,0.02148 -0.0371,0.01172 0.0176,0.0039 -0.0859,0.02734 -0.13672,0.08594 -0.0762,0.02344 0.0137,0.0078 -0.0976,0.01172 -0.0371,0.01172 -0.0508,0.0078 -0.0547,0.0039 -0.11914,0.01953 0.14063,0.01367 0.17773,0.03125 0.0449,-0.0098 0.004,-0.02148 -0.0566,-0.02148 0.0527,-0.01563 h 0.26367 l 0.11328,-0.0039 0.11133,-0.02344 -0.043,-0.01758 0.008,-0.0098 0.0762,-0.01367 0.24219,-0.01953 h 0.0859 l 0.28516,0.01367 0.22266,0.0332 0.14453,0.02539 0.17382,0.0039 0.15235,0.0098 0.0215,0.0059 -0.13867,0.0332 -0.11914,0.01758 -0.0937,0.02539 -0.2207,0.0332 0.10742,0.0078 0.22266,0.0098 0.11914,0.002 0.65234,-0.0293 0.36523,-0.0293 0.13868,-0.002 0.1582,-0.0039 0.16016,0.0078 0.125,0.01367 0.1289,0.02539 0.0391,0.01758 0.0156,0.03906 -0.01,0.0059 0.27735,0.01758 0.20898,-0.0039 h 0.38477 l 0.43359,0.01367 0.13086,0.0078 0.27149,0.0332 0.27148,0.04102 0.48828,0.05273 0.0352,0.0098 0.26172,0.0293 0.43554,0.01953 1.65821,0.136719 0.002,0.03516 0.006,0.002 0.21289,0.01367 0.10547,-0.03711 0.0762,-0.0078 0.17578,-0.01172 0.42969,-0.01563 0.5039,-0.0098 0.19922,-0.0098 -0.13476,-0.02734 -0.35938,-0.02734 -0.2832,-0.02734 -0.0195,-0.0078 0.0273,-0.0059 0.17578,-0.0059 0.39844,0.01172 0.54297,0.02148 0.87109,0.04297 0.57227,0.03711 h 0.0762 l 0.59766,0.03906 0.17578,0.01563 0.10156,0.0039 0.26563,0.02148 0.17968,0.02344 0.0371,0.01563 h 0.34766 l 0.45898,0.0039 0.3418,0.0039 0.28906,0.0059 0.36524,0.01563 0.25781,0.0059 0.44726,0.01953 0.66211,0.0293 0.38672,0.01563 0.0508,-0.002 0.17774,0.0078 1.45508,0.06445 0.23633,0.0078 0.51562,0.01953 0.5957,0.03516 0.22852,0.02148 0.2207,0.03906 0.20117,0.05664 0.0859,0.0098 0.14063,-0.01563 0.26367,-0.01172 0.082,-0.0098 0.0254,-0.01367 0.0469,-0.002 0.14649,0.0059 0.0527,0.0078 0.0899,0.02734 0.008,0.0332 -0.0469,0.01758 0.0684,0.03125 -0.002,0.01758 0.18164,0.0098 0.20899,0.01758 0.32812,0.01758 0.0898,0.01367 0.0684,0.03516 0.0645,0.0078 0.10156,0.002 0.11133,-0.0078 0.0801,0.002 0.20507,0.03125 0.20899,0.0039 0.0586,0.0059 0.13086,0.03711 0.0684,0.0078 0.13477,0.0059 0.70312,-0.0078 h 0.19141 l 0.17773,0.0039 0.0508,0.0078 -0.0449,0.0098 -0.31055,0.02734 0.37305,0.0293 0.0352,-0.0039 0.19922,-0.0098 0.1582,0.002 0.35742,-0.0098 0.0274,0.0332 0.17773,0.03906 0.22852,0.02734 0.36328,0.03516 -0.0371,0.02539 -0.19141,0.03906 -0.0566,0.02539 0.61719,0.05859 0.17969,-0.02148 0.10546,-0.04102 -0.0273,-0.0098 0.0176,-0.01563 0.0488,-0.002 0.11328,-0.002 0.0996,0.0039 0.16406,0.01953 0.13086,0.002 0.19141,-0.002 0.29296,0.01172 0.002,0.01953 -0.15039,0.04102 -0.13477,0.02148 -0.24609,0.01953 1.02539,0.01367 V 42.789062 Z"
       transform="translate(-178.63608,17.179732)" />
  </g>
  <metadata
     id="metadata144">
    <rdf:RDF>
      <cc:Work
         rdf:about="">
        <dc:title>v.out.svg vector_63556d90562667 /home/kaveh/Southern Ocean (West).svg</dc:title>
      </cc:Work>
    </rdf:RDF>
  </metadata>
</svg>
